<svg xmlns="http://www.w3.org/2000/svg" xmlns:xlink="http://www.w3.org/1999/xlink" width="116" height="193" viewBox="0 0 116 193">
  <defs>
    <clipPath id="clip-path">
      <rect width="116" height="193" fill="none"/>
    </clipPath>
  </defs>
  <g id="Repetição_de_grade_6" data-name="Repetição de grade 6" clip-path="url(#clip-path)">
    <g transform="translate(3474 -3541)">
      <g id="Retângulo_53" data-name="Retângulo 53" transform="translate(-3398 3589)" fill="none" stroke="#c5c5c5" stroke-width="1">
        <rect width="11" height="20" stroke="none"/>
        <rect x="0.5" y="0.5" width="10" height="19" fill="none"/>
      </g>
      <g id="Retângulo_54" data-name="Retângulo 54" transform="translate(-3369 3579)" fill="none" stroke="#c5c5c5" stroke-width="1">
        <rect width="11" height="12" stroke="none"/>
        <rect x="0.5" y="0.5" width="10" height="11" fill="none"/>
      </g>
      <path id="Caminho_556" data-name="Caminho 556" d="M-3397.065,3580.265v-9.821h9.821v9.821Z" fill="none" stroke="#c5c5c5" stroke-width="1"/>
      <g id="Retângulo_55" data-name="Retângulo 55" transform="translate(-3407 3541)" fill="none" stroke="#c5c5c5" stroke-width="1">
        <rect width="10" height="12" stroke="none"/>
        <rect x="0.5" y="0.5" width="9" height="11" fill="none"/>
      </g>
      <g id="Retângulo_56" data-name="Retângulo 56" transform="translate(-3398 3551)" fill="none" stroke="#c5c5c5" stroke-width="1">
        <rect width="11" height="11" stroke="none"/>
        <rect x="0.5" y="0.5" width="10" height="10" fill="none"/>
      </g>
      <g id="Retângulo_57" data-name="Retângulo 57" transform="translate(-3426 3551)" fill="none" stroke="#c5c5c5" stroke-width="1">
        <rect width="11" height="11" stroke="none"/>
        <rect x="0.5" y="0.5" width="10" height="10" fill="none"/>
      </g>
      <g id="Retângulo_58" data-name="Retângulo 58" transform="translate(-3436 3560)" fill="none" stroke="#c5c5c5" stroke-width="1">
        <rect width="11" height="11" stroke="none"/>
        <rect x="0.5" y="0.5" width="10" height="10" fill="none"/>
      </g>
      <g id="Retângulo_59" data-name="Retângulo 59" transform="translate(-3446 3570)" fill="none" stroke="#c5c5c5" stroke-width="1">
        <rect width="12" height="12" stroke="none"/>
        <rect x="0.5" y="0.5" width="11" height="11" fill="none"/>
      </g>
      <g id="Retângulo_60" data-name="Retângulo 60" transform="translate(-3378 3542)" fill="none" stroke="#c5c5c5" stroke-width="1">
        <rect width="10" height="29" rx="5" stroke="none"/>
        <rect x="0.5" y="0.5" width="9" height="28" rx="4.5" fill="none"/>
      </g>
      <g id="Retângulo_61" data-name="Retângulo 61" transform="translate(-3436 3608)" fill="none" stroke="#c5c5c5" stroke-width="1">
        <rect width="11" height="11" stroke="none"/>
        <rect x="0.5" y="0.5" width="10" height="10" fill="none"/>
      </g>
      <g id="Retângulo_62" data-name="Retângulo 62" transform="translate(-3465 3618)" fill="none" stroke="#c5c5c5" stroke-width="1">
        <rect width="11" height="11" stroke="none"/>
        <rect x="0.5" y="0.5" width="10" height="10" fill="none"/>
      </g>
      <g id="Retângulo_63" data-name="Retângulo 63" transform="translate(-3455 3627)" fill="none" stroke="#c5c5c5" stroke-width="1">
        <rect width="20" height="11" stroke="none"/>
        <rect x="0.5" y="0.5" width="19" height="10" fill="none"/>
      </g>
      <g id="Retângulo_64" data-name="Retângulo 64" transform="translate(-3436 3637)" fill="none" stroke="#c5c5c5" stroke-width="1">
        <rect width="30" height="11" stroke="none"/>
        <rect x="0.5" y="0.5" width="29" height="10" fill="none"/>
      </g>
      <g id="Retângulo_65" data-name="Retângulo 65" transform="translate(-3388 3656)" fill="none" stroke="#c5c5c5" stroke-width="1">
        <rect width="20" height="11" stroke="none"/>
        <rect x="0.5" y="0.5" width="19" height="10" fill="none"/>
      </g>
      <g id="Retângulo_66" data-name="Retângulo 66" transform="translate(-3398 3646)" fill="none" stroke="#c5c5c5" stroke-width="1">
        <rect width="11" height="11" stroke="none"/>
        <rect x="0.5" y="0.5" width="10" height="10" fill="none"/>
      </g>
      <g id="Retângulo_67" data-name="Retângulo 67" transform="translate(-3398 3627)" fill="none" stroke="#c5c5c5" stroke-width="1">
        <rect width="11" height="11" stroke="none"/>
        <rect x="0.5" y="0.5" width="10" height="10" fill="none"/>
      </g>
      <g id="Retângulo_68" data-name="Retângulo 68" transform="translate(-3388 3617)" fill="none" stroke="#c5c5c5" stroke-width="1">
        <rect width="11" height="11" stroke="none"/>
        <rect x="0.5" y="0.5" width="10" height="10" fill="none"/>
      </g>
      <g id="Retângulo_69" data-name="Retângulo 69" transform="translate(-3474 3570)" fill="none" stroke="#c5c5c5" stroke-width="1">
        <rect width="11" height="11" stroke="none"/>
        <rect x="0.5" y="0.5" width="10" height="10" fill="none"/>
      </g>
      <g id="Retângulo_70" data-name="Retângulo 70" transform="translate(-3474 3599)" fill="none" stroke="#c5c5c5" stroke-width="1">
        <rect width="11" height="11" stroke="none"/>
        <rect x="0.5" y="0.5" width="10" height="10" fill="none"/>
      </g>
      <g id="Retângulo_71" data-name="Retângulo 71" transform="translate(-3474 3589)" fill="none" stroke="#c5c5c5" stroke-width="1">
        <rect width="30" height="11" rx="5.5" stroke="none"/>
        <rect x="0.5" y="0.5" width="29" height="10" rx="5" fill="none"/>
      </g>
      <g id="Retângulo_72" data-name="Retângulo 72" transform="translate(-3426 3617)" fill="none" stroke="#c5c5c5" stroke-width="1">
        <rect width="11" height="12" stroke="none"/>
        <rect x="0.5" y="0.5" width="10" height="11" fill="none"/>
      </g>
      <g id="Retângulo_73" data-name="Retângulo 73" transform="translate(-3474 3656)" fill="none" stroke="#c5c5c5" stroke-width="1">
        <rect width="11" height="20" stroke="none"/>
        <rect x="0.5" y="0.5" width="10" height="19" fill="none"/>
      </g>
      <g id="Retângulo_74" data-name="Retângulo 74" transform="translate(-3474 3684)" fill="none" stroke="#c5c5c5" stroke-width="1">
        <rect width="11" height="11" stroke="none"/>
        <rect x="0.5" y="0.5" width="10" height="10" fill="none"/>
      </g>
      <g id="Retângulo_75" data-name="Retângulo 75" transform="translate(-3474 3694)" fill="none" stroke="#c5c5c5" stroke-width="1">
        <rect width="11" height="11" stroke="none"/>
        <rect x="0.5" y="0.5" width="10" height="10" fill="none"/>
      </g>
      <g id="Retângulo_76" data-name="Retângulo 76" transform="translate(-3455 3694)" fill="none" stroke="#c5c5c5" stroke-width="1">
        <rect width="11" height="11" stroke="none"/>
        <rect x="0.5" y="0.5" width="10" height="10" fill="none"/>
      </g>
      <g id="Retângulo_77" data-name="Retângulo 77" transform="translate(-3455 3704)" fill="none" stroke="#c5c5c5" stroke-width="1">
        <rect width="11" height="11" stroke="none"/>
        <rect x="0.5" y="0.5" width="10" height="10" fill="none"/>
      </g>
      <g id="Retângulo_78" data-name="Retângulo 78" transform="translate(-3436 3694)" fill="none" stroke="#c5c5c5" stroke-width="1">
        <rect width="11" height="11" stroke="none"/>
        <rect x="0.5" y="0.5" width="10" height="10" fill="none"/>
      </g>
      <g id="Elipse_1" data-name="Elipse 1" transform="translate(-3426 3685)" fill="none" stroke="#c5c5c5" stroke-width="1">
        <circle cx="5" cy="5" r="5" stroke="none"/>
        <circle cx="5" cy="5" r="4.5" fill="none"/>
      </g>
      <g id="Retângulo_79" data-name="Retângulo 79" transform="translate(-3455 3637)" fill="none" stroke="#c5c5c5" stroke-width="1">
        <rect width="11" height="30" rx="5" stroke="none"/>
        <rect x="0.5" y="0.5" width="10" height="29" rx="4.5" fill="none"/>
      </g>
      <g id="Retângulo_80" data-name="Retângulo 80" transform="translate(-3464 3723)" fill="none" stroke="#c5c5c5" stroke-width="1">
        <rect width="20" height="10" rx="5" stroke="none"/>
        <rect x="0.5" y="0.5" width="19" height="9" rx="4.5" fill="none"/>
      </g>
      <g id="Retângulo_81" data-name="Retângulo 81" transform="translate(-3445 3723)" fill="none" stroke="#c5c5c5" stroke-width="1">
        <rect width="10" height="10" stroke="none"/>
        <rect x="0.5" y="0.5" width="9" height="9" fill="none"/>
      </g>
      <g id="Retângulo_82" data-name="Retângulo 82" transform="translate(-3426 3723)" fill="none" stroke="#c5c5c5" stroke-width="1">
        <rect width="11" height="11" stroke="none"/>
        <rect x="0.5" y="0.5" width="10" height="10" fill="none"/>
      </g>
      <g id="Elipse_2" data-name="Elipse 2" transform="translate(-3417 3723)" fill="none" stroke="#c5c5c5" stroke-width="1">
        <circle cx="5.5" cy="5.5" r="5.5" stroke="none"/>
        <circle cx="5.5" cy="5.5" r="5" fill="none"/>
      </g>
      <g id="Retângulo_83" data-name="Retângulo 83" transform="translate(-3388 3713)" fill="none" stroke="#c5c5c5" stroke-width="1">
        <rect width="11" height="11" stroke="none"/>
        <rect x="0.5" y="0.5" width="10" height="10" fill="none"/>
      </g>
      <g id="Retângulo_84" data-name="Retângulo 84" transform="translate(-3388 3703)" fill="none" stroke="#c5c5c5" stroke-width="1">
        <rect width="10" height="11" stroke="none"/>
        <rect x="0.5" y="0.5" width="9" height="10" fill="none"/>
      </g>
      <g id="Retângulo_85" data-name="Retângulo 85" transform="translate(-3398 3684)" fill="none" stroke="#c5c5c5" stroke-width="1">
        <rect width="12" height="20" stroke="none"/>
        <rect x="0.5" y="0.5" width="11" height="19" fill="none"/>
      </g>
      <g id="Retângulo_86" data-name="Retângulo 86" transform="translate(-3427 3704)" fill="none" stroke="#c5c5c5" stroke-width="1">
        <rect width="31" height="11" rx="5.5" stroke="none"/>
        <rect x="0.5" y="0.5" width="30" height="10" rx="5" fill="none"/>
      </g>
      <g id="Retângulo_87" data-name="Retângulo 87" transform="translate(-3426 3675)" fill="none" stroke="#c5c5c5" stroke-width="1">
        <rect width="11" height="11" stroke="none"/>
        <rect x="0.5" y="0.5" width="10" height="10" fill="none"/>
      </g>
      <g id="Retângulo_88" data-name="Retângulo 88" transform="translate(-3417 3657)" fill="none" stroke="#c5c5c5" stroke-width="1">
        <rect width="11" height="18" rx="5.5" stroke="none"/>
        <rect x="0.5" y="0.5" width="10" height="17" rx="5" fill="none"/>
      </g>
      <g id="Retângulo_89" data-name="Retângulo 89" transform="translate(-3427 3647)" fill="none" stroke="#c5c5c5" stroke-width="1">
        <rect width="12" height="11" stroke="none"/>
        <rect x="0.5" y="0.5" width="11" height="10" fill="none"/>
      </g>
      <g id="Retângulo_90" data-name="Retângulo 90" transform="translate(-3464 3675)" fill="none" stroke="#c5c5c5" stroke-width="1">
        <rect width="20" height="10" stroke="none"/>
        <rect x="0.5" y="0.5" width="19" height="9" fill="none"/>
      </g>
      <g id="Elipse_3" data-name="Elipse 3" transform="translate(-3445 3675)" fill="none" stroke="#c5c5c5" stroke-width="1">
        <circle cx="5" cy="5" r="5" stroke="none"/>
        <circle cx="5" cy="5" r="4.5" fill="none"/>
      </g>
    </g>
  </g>
</svg>
