<svg id="games" xmlns="http://www.w3.org/2000/svg" width="751.131" height="556.414" viewBox="0 0 751.131 556.414">
  <path id="Caminho_634" data-name="Caminho 634" d="M745.319,704.743H904.585v4.887a16,16,0,0,1-16,16H761.319a16,16,0,0,1-16-16Z" transform="translate(1425.47 1258.58) rotate(180)" fill="#e6e6e6"/>
  <path id="Caminho_635" data-name="Caminho 635" d="M821.225,705.718l4.843-1.951c-50.677-125.789-45.795-284.482-2.956-420.613a85.005,85.005,0,0,0-24.764-89.934c-24.865-22.189-59.145-27.594-89.467-14.108-29.93,13.314-34.056,36.505-34.056,59.583h5.222c0-24.635,5.265-43.383,30.957-54.812,28.419-12.639,60.555-7.569,83.867,13.234a79.838,79.838,0,0,1,23.261,84.469C774.8,419.289,770.2,579.072,821.225,705.718Z" transform="translate(-224.434 -171.793)" fill="#e6e6e6"/>
  <circle id="Elipse_19" data-name="Elipse 19" cx="18.276" cy="18.276" r="18.276" transform="translate(436.031 107.372)" fill="#e6e6e6"/>
  <path id="Caminho_636" data-name="Caminho 636" d="M650.594,329.3v-34.63h5.385V329.3a7.179,7.179,0,1,1-5.385,0Z" transform="translate(-224.434 -171.793)" fill="#e6e6e6"/>
  <path id="Caminho_637" data-name="Caminho 637" d="M624.565,268.068a30.06,30.06,0,0,1,30.026-30.025H704.2a30.026,30.026,0,0,1,0,60.051H654.59a30.06,30.06,0,0,1-30.025-30.026Z" transform="translate(-224.434 -171.793)" fill="#1077dd"/>
  <path id="Caminho_638" data-name="Caminho 638" d="M554.67,454.005c4.981-63.723,30.447-94.083,14.14-113.123-15.619-18.238-59.617-14.47-87.872,3.03-76.212,47.2-104.134,235.332-6.06,327.249C568.072,758.5,744.7,730.53,783.946,659.04c9.159-16.681,16.434-45.922,3.03-63.632-33.278-43.967-154.271,35.669-208.066-14.14C547.03,551.749,551.937,488.975,554.67,454.005Z" transform="translate(-224.434 -171.793)" fill="#3f3d56"/>
  <path id="Caminho_639" data-name="Caminho 639" d="M612.927,422.347A7.822,7.822,0,0,0,609,432.527a7.511,7.511,0,0,0,.6,1.087l-16.358,21.842,8.163,12.2,19.174-32.343a7.8,7.8,0,0,0,2.373-9.222,7.465,7.465,0,0,0-9.838-3.828Q613.02,422.3,612.927,422.347Z" transform="translate(-224.434 -171.793)" fill="#ffb6b6"/>
  <path id="Caminho_640" data-name="Caminho 640" d="M612.914,460.005c1.071.949-1.9,2.121-5.04.273-.9-.535-1.283-.758-1.384-.616-.253.353,1.222,2.959.828,8.747-.242,3.454-5.979,9.949-12.494,16.282-8.807,8.565-19.049,16.827-19.049,16.827l-3.6-2.879-37.7-30.23-6.363-8.807a62.677,62.677,0,0,1,2.616-10.232A111.537,111.537,0,0,1,536.4,435.9c1.172-2.374,2.374-4.636,3.525-6.717l20.2,22.261,16.928,18.645s4.929-7.939,8.747-10.1a3.637,3.637,0,0,1,1.616-.555c3.858-.182,4.091-2.283-.384-6.858s1.172-.3,5.151-1.535,0,0,.838-3.081,12-9.262,12-9.262l.465.414,8.434,7.444,2.414,2.131s-2.636,7.232-3.363,8.757S611.854,459.046,612.914,460.005Z" transform="translate(-224.434 -171.793)" fill="#1077dd"/>
  <path id="Caminho_641" data-name="Caminho 641" d="M610.8,428.521l.411-11.141-42.776-6.887-.607,16.442Z" fill="#ffb6b6"/>
  <path id="Caminho_642" data-name="Caminho 642" d="M827.473,603.668l-.406-17.838,7.626.281L847,569.621a4.766,4.766,0,0,1,8.583,3.027l-.782,21.19-7.678,3.374,7.49,1.7-.295,7.989Z" transform="translate(-224.434 -171.793)" fill="#2f2e41"/>
  <path id="Caminho_643" data-name="Caminho 643" d="M594.489,604.651l135.488,3.435s58.508,3.379,72.236-5.551l14.476-1.828.785-21.264s-8.852.065-13.942-2.306-1.552-5.273-6.4-2.42-4.34,3.2-8.092,1.885-175.794-27.534-175.794-27.534Z" transform="translate(-224.434 -171.793)" fill="#2f2e41"/>
  <path id="Caminho_644" data-name="Caminho 644" d="M548.592,423.631l7.879-7.887L529.8,381.6l-11.628,11.642Z" fill="#ffb6b6"/>
  <path id="Caminho_645" data-name="Caminho 645" d="M765.053,588.562l11.835-13.353,5.4,5.393,20.241-3.716a4.767,4.767,0,0,1,4.233,8.057l-14.985,15-7.923-2.748,4.332,6.344-5.65,5.657Z" transform="translate(-224.434 -171.793)" fill="#2f2e41"/>
  <path id="Caminho_646" data-name="Caminho 646" d="M541.035,530.449l1.347,31.31c1.586,36.859,42.178,59.168,73.654,39.923q.87-.532,1.746-1.1s11.933-3.2,11.57-8.279,2.553-7.545,5.133-6.161,36.357-46.553,36.357-46.553,70.178,35.006,85.66,43.247c0,0,14.556-22.759,13.5-22.521s-86.819-59.788-86.819-59.788-13.972-14.14-31.3-4.8c-.361,1.371-.052,1.419-.052,1.419l-57.253,46.652-8.09-15.363Z" transform="translate(-224.434 -171.793)" fill="#2f2e41"/>
  <path id="Caminho_647" data-name="Caminho 647" d="M595.017,491.306a32.348,32.348,0,0,1-.616,4.3,25.39,25.39,0,0,1-1.98,5.939s0,2.111-4.04,9.181,1.01,4.04,4.04,9.292,0,2.828-3.363,6.2a7.722,7.722,0,0,0-1.909,7.606s-43.391.03-51.471-3-9.918-20.1-2.677-21.786-2.192-3.363-6.444-7.252,4.252-10.252,4.252-10.252-3.5-6.05-3.212-26.362a40.032,40.032,0,0,1,.515-5.575,62.682,62.682,0,0,1,2.616-10.232,111.537,111.537,0,0,1,5.676-13.474c1.172-2.373,2.374-4.636,3.525-6.717.182-.323.354-.636.535-.949,2.192-3.879,4.192-7.05,5.515-9.08,1.02-1.576,1.636-2.464,1.636-2.464L554.97,403.9l24.544,11.5-1.394,18.817,4.232,14.191,1.949,6.535,1.5,5.04,2.323,7.807s-.636.03.121,1.071a34.485,34.485,0,0,1,6.575,15.827,32.222,32.222,0,0,1,.192,6.616Z" transform="translate(-224.434 -171.793)" fill="#1077dd"/>
  <path id="Caminho_648" data-name="Caminho 648" d="M665.9,493.334l-.461-.149-58.744-18.917,21.647-71.017a9.768,9.768,0,0,1,14.312-5.562l37.54,22.179a14.715,14.715,0,0,1,6.319,17.788Z" transform="translate(-224.434 -171.793)" fill="#2f2e41"/>
  <path id="Caminho_649" data-name="Caminho 649" d="M666.134,497.849,606.917,478.78l21.647-71.017a9.768,9.768,0,0,1,14.312-5.562l39.332,19.638c5.909,3.49,5.771,12.524,3.027,19.936Z" transform="translate(-224.434 -171.793)" fill="#1077dd"/>
  <path id="Caminho_650" data-name="Caminho 650" d="M660.206,502.989a11.291,11.291,0,0,1-9.05.9L613.306,491.7a11.7,11.7,0,0,1-7.575-14.49l18.976-62.255a9.767,9.767,0,0,1,12.39-6.431L676.322,421.4a14.722,14.722,0,0,1,9.265,18.959L665.3,496.927a11.3,11.3,0,0,1-5.092,6.062Z" transform="translate(-224.434 -171.793)" fill="#3f3d56"/>
  <circle id="Elipse_20" data-name="Elipse 20" cx="27.11" cy="27.11" r="27.11" transform="translate(326.581 178.104)" fill="#ffb6b6"/>
  <path id="Caminho_651" data-name="Caminho 651" d="M486.452,404.525A23.511,23.511,0,0,0,498,415.318a27.034,27.034,0,0,0,6.222,1.969,24.326,24.326,0,0,1,2.879-6.816,20.083,20.083,0,0,0,0,7.2,23.9,23.9,0,0,0,9.663-1.2,20.726,20.726,0,0,0,13.034-13.2c2.16-7.186-.167-14.861-.35-22.362s3.373-16.474,10.82-17.4c5.671-.708,4.97-.158,9.045,3.848-5.7,6.332,8.2,34.377,15.653,33.138,4.216-.7,7.318-4.048,8.152-3.932,4.27,10.456-8.574,25.286,1.613,30.154l-.756-1c-5.332-8.808,10.445-23.685,5.113-32.494-1.487-2.464-3.032-5.353-2.112-8.079.873-2.592,5.293-3.412,6.226-1.053-1.516-5.407,2.716-11.753,8.338-12.3,4.994-.493,4.706.931,9.467,2.229a24.293,24.293,0,0,1,2.608-5.835,19.917,19.917,0,0,0-.139,6.3,7.855,7.855,0,0,0,4.941-1.046c4.4-2.636,4.528-9.44,1.507-13.581s-8.095-6.187-12.985-7.734c-.045-10.342-27.872-15.292-32.99-5.678-.526-7.785-9.45-13.029-17.138-11.707s-13.752,7.487-17.45,14.357-5.532,14.552-8.238,21.865-6.575,14.6-13.056,18.943-16.109,4.727-21.52-.89a17.167,17.167,0,0,0-.094,15.523Z" transform="translate(-224.434 -171.793)" fill="#2f2e41"/>
  <path id="Caminho_652" data-name="Caminho 652" d="M514.269,528.5a9.79,9.79,0,0,1,1.815-1.149c10.377-5.164,42.646-18.57,67.877-18.02,48.548,1.058,110.332,54.637,95.953,90.617-10.941,27.378-65.336,42.954-105.043,30.5C519.245,612.989,497.288,542.036,514.269,528.5Z" transform="translate(-224.434 -171.793)" fill="#3f3d56"/>
  <path id="Caminho_653" data-name="Caminho 653" d="M312.726,725.733c-15.863-2.993-29.906-74.46,1.305-109.658,10.693-12.059,24.032-17.308,41.775-22.193,102.121-28.115,180.011-1.32,190.478,5.222,10.444,6.527,28.752,104.875,5.34,118.8-13.173,7.833-39.282,11.749-52.218,2.611-19.035-13.446,12.915-48.324-1.305-71.8-16.137-26.64-101.114-35.614-143.718-9.138C308.929,667.82,402.684,742.7,312.726,725.733Z" transform="translate(-224.434 -171.793)" fill="#f2f2f2"/>
  <path id="Caminho_654" data-name="Caminho 654" d="M418.787,604.223h-60.6c-14.961-14.338-25.658-28.156-17.094-39.626a12.432,12.432,0,0,1,12.431-12.432h69.928A12.432,12.432,0,0,1,435.881,564.6C439.141,577.666,433.316,590.877,418.787,604.223Z" transform="translate(-224.434 -171.793)" fill="#ccc"/>
  <path id="Caminho_655" data-name="Caminho 655" d="M407.9,536.515a2.807,2.807,0,0,1-2.035-4.866l.192-.765-.076-.184a7.539,7.539,0,0,0-13.907.052c-2.275,5.478-5.17,10.966-5.883,16.758a22.3,22.3,0,0,0,.391,7.671,89.42,89.42,0,0,1-8.134-37.139,86.3,86.3,0,0,1,.535-9.628q.443-3.931,1.231-7.807a90.455,90.455,0,0,1,17.938-38.337,24.073,24.073,0,0,0,10.012-10.387,18.363,18.363,0,0,0,1.67-5.018c-.487.064-1.838-7.359-1.47-7.815-.679-1.031-1.895-1.543-2.637-2.549-3.689-5-8.773-4.129-11.426,2.669-5.669,2.861-5.724,7.606-2.245,12.169,2.213,2.9,2.517,6.832,4.459,9.94-.2.256-.408.5-.607.759a91.038,91.038,0,0,0-9.5,15.054,37.846,37.846,0,0,0-2.259-17.579c-2.163-5.217-6.216-9.611-9.786-14.122-4.288-5.418-13.08-3.053-13.836,3.814q-.011.1-.021.2.8.449,1.557.952a3.808,3.808,0,0,1-1.535,6.93l-.078.012a37.891,37.891,0,0,0,1,5.665c-4.58,17.71,5.307,24.16,19.424,24.45.312.16.615.32.927.471a92.927,92.927,0,0,0-5,23.539,88.128,88.128,0,0,0,.064,14.231l-.024-.168a23.289,23.289,0,0,0-7.95-13.448c-6.118-5.026-14.762-6.877-21.363-10.917a4.371,4.371,0,0,0-6.694,4.252q.013.088.027.176a25.569,25.569,0,0,1,2.868,1.382q.8.449,1.557.953a3.808,3.808,0,0,1-1.535,6.93l-.078.012-.16.024a37.921,37.921,0,0,0,6.975,10.923c2.863,15.46,15.162,16.927,28.318,12.425h.008a92.9,92.9,0,0,0,6.24,18.218h22.293c.08-.248.152-.5.224-.751a25.328,25.328,0,0,1-6.169-.367c1.654-2.03,3.308-4.075,4.962-6.1a1.377,1.377,0,0,0,.1-.12c.839-1.039,1.686-2.069,2.525-3.108h0a37.1,37.1,0,0,0-1.087-9.451Z" transform="translate(-224.434 -171.793)" fill="#ccc"/>
  <path id="Caminho_656" data-name="Caminho 656" d="M483.94,600.976a5.385,5.385,0,0,0,5.189,3.635l22.233-.572a5.311,5.311,0,0,0,5.019-3.908l3.146-33.643a8.219,8.219,0,0,0,3.557.731,8.108,8.108,0,0,0-.407-16.211,6.873,6.873,0,0,0-1.457.152,5.5,5.5,0,0,0-4.09-1.765l-34.2.883a4.9,4.9,0,0,0-.844.1,5.341,5.341,0,0,0-4.09,6.936ZM520.173,564.2l2.239-8.017a5.459,5.459,0,0,0,.017-2.832c.109,0,.2-.052.313-.052a5.8,5.8,0,0,1,.272,11.6,5.459,5.459,0,0,1-2.841-.7Z" transform="translate(-224.434 -171.793)" fill="#ccc"/>
  <path id="Caminho_657" data-name="Caminho 657" d="M482.087,550.382c.729,4.166,8.92,7.095,18.77,6.586,9.058-.417,16.464-3.6,17.82-7.367a5.056,5.056,0,0,0-1.548-.206l-34.2.883a4.909,4.909,0,0,0-.843.1Z" transform="translate(-224.434 -171.793)" fill="#fff"/>
  <path id="Caminho_658" data-name="Caminho 658" d="M225.625,727.311l748.75.307a1.191,1.191,0,0,0,0-2.381l-748.75-.307a1.191,1.191,0,0,0,0,2.381Z" transform="translate(-224.434 -171.793)" fill="#cacaca"/>
  <path id="Caminho_659" data-name="Caminho 659" d="M645.576,461.206a7.822,7.822,0,0,0-7.536,7.889,7.507,7.507,0,0,0,.133,1.233l-23.5,13.873,2.844,14.4,30.135-22.485a7.8,7.8,0,0,0,5.737-7.6,7.465,7.465,0,0,0-7.61-7.317Q645.678,461.2,645.576,461.206Z" transform="translate(-224.434 -171.793)" fill="#ffb6b6"/>
  <path id="Caminho_660" data-name="Caminho 660" d="M626.326,494.279c-.629-.842-.9-1.195-1.042-1.1-.368.222-.014,3.2-2.6,8.383-3.643,7.285-41.844,18.442-41.844,18.442l-4.7-8.611-20.688-37.84-7.131-30.33a13.529,13.529,0,0,1-.361-3.228,128.18,128.18,0,0,1,20.171-11.611,13.5,13.5,0,0,1,6.061,7.22l14.241,39.929,5.683,15.942s10.024-7.168,13.66-5.852,4.662-.532,2.289-6.475,1.189.174,5.334.563,0,0,1.962-2.522S632,473.253,632,473.253l.27.563,4.915,10.11,1.407,2.9s-5.211,5.653-6.468,6.78-1.653,1.056-1.035,2.349S628.509,497.19,626.326,494.279Z" transform="translate(-224.434 -171.793)" fill="#1077dd"/>
</svg>
