<svg xmlns="http://www.w3.org/2000/svg" width="517.481" height="518.722" viewBox="0 0 517.481 518.722">
  <g id="noun-user-1066795" transform="translate(-91.54 -20.557)">
    <path id="Caminho_1" data-name="Caminho 1" d="M588.56,234.08l-89.6-89.6-19.6,19.6,89.6,89.6c15.68,15.68,16.8,40.32,2.238,54.879l-89.6,89.6,19.6,19.6,89.6-89.6c25.2-24.641,24.082-67.2-2.238-94.082ZM321.44,58.8c14.559-14.559,39.2-13.441,54.879,2.238l89.6,89.6,19.6-19.6-89.6-89.6c-26.879-26.879-68.879-28-94.078-2.238l-89.6,89.6,19.6,19.6ZM131.6,305.76c-15.68-15.68-16.8-40.32-2.238-54.879l89.6-89.6-19.6-19.6-89.6,89.6c-25.2,25.2-24.078,67.762,2.238,94.078l89.6,89.6,19.6-19.6ZM378.56,501.2a34.578,34.578,0,0,1-26.32,10.078,45.648,45.648,0,0,1-28.559-12.32l-89.6-89.6-19.6,19.6,89.6,89.6a69.767,69.767,0,0,0,47.039,20.719h2.238a62.623,62.623,0,0,0,44.8-18.48l89.6-89.6-19.6-19.6ZM222.88,344.4c0,1.121,0,3.359-.559,14v9.523c0,.559.559,1.121.559,1.68s.559.559.559,1.121l.559,1.121c0,.559.559.559,1.121,1.121l.559,1.121,1.121,1.121,1.121,1.121c34.16,26.32,75.039,39.762,121.52,39.762,45.359,0,87.359-13.441,121.52-39.2l1.121-1.121,1.121-1.121,1.68-2.238c0-.559.559-.559.559-1.121L476,370.17a1.967,1.967,0,0,1,.559-1.121,2.06,2.06,0,0,1,.559-1.68v-7.281c0-11.762,0-14-.559-15.68-4.48-38.641-28-64.4-69.441-76.16a363.145,363.145,0,0,0,15.68-35.281,22.853,22.853,0,0,0,11.762-20.16V196.569a22.612,22.612,0,0,0-8.4-17.359v-2.8c0-16.238-5.6-68.32-76.719-68.32s-76.719,52.078-76.719,68.32v3.359c-5.039,4.48-8.4,10.641-8.4,17.359v16.238a22.852,22.852,0,0,0,11.762,20.16c3.359,8.961,9.52,24.078,15.68,34.719-40.883,11.2-64.961,37.52-68.883,76.156Zm71.68-143.36a14.363,14.363,0,0,0,8.4-13.441v-12.32c0-26.32,15.68-39.2,47.039-39.2s47.039,12.879,47.039,39.2V187.6a15.619,15.619,0,0,0,8.4,13.441v6.719a14.227,14.227,0,0,0-7.281,7.84c-3.359,8.961-13.441,33.6-19.039,42.559l-.559,1.121c-4.48,6.16-8.4,12.879-28.559,12.879-19.6,0-24.078-6.719-28.559-12.879l-.559-1.121c-5.6-8.4-14.559-30.8-19.039-42.559a14.227,14.227,0,0,0-7.281-7.84ZM252,347.2c3.359-30.238,23.52-47.6,62.16-54.32,9.52,6.16,21.281,8.961,35.84,8.961s26.32-2.8,35.84-8.961c38.641,6.719,58.8,24.641,61.6,53.762V356.72a174.343,174.343,0,0,1-98,29.68c-37.52,0-70.559-10.078-98-29.68A68.892,68.892,0,0,0,252,347.2Z"/>
  </g>
</svg>
