<svg xmlns="http://www.w3.org/2000/svg" width="423.933" height="531.999" viewBox="0 0 423.933 531.999">
  <g id="noun-about-3022224" transform="translate(-137.761 -13.996)">
    <path id="Caminho_1132" data-name="Caminho 1132" d="M526.96,14H172.48a34.894,34.894,0,0,0-34.719,34.719v470.96a25.812,25.812,0,0,0,15.68,24.078A22.725,22.725,0,0,0,164.082,546,24.513,24.513,0,0,0,182,538.714l109.76-104.16h235.2a34.894,34.894,0,0,0,34.719-34.719l0-351.12C562.238,29.676,546.558,14,526.96,14ZM380.24,347.2a11.833,11.833,0,0,1-11.762,11.762H331.517A11.833,11.833,0,0,1,319.755,347.2l.008-149.52a11.833,11.833,0,0,1,11.762-11.762h36.961a11.833,11.833,0,0,1,11.762,11.762Zm0-212.8a11.833,11.833,0,0,1-11.762,11.762H331.517A11.833,11.833,0,0,1,319.755,134.4V101.92a11.833,11.833,0,0,1,11.762-11.762h36.961A11.833,11.833,0,0,1,380.24,101.92Z"/>
  </g>
</svg>
