<svg xmlns="http://www.w3.org/2000/svg" xmlns:xlink="http://www.w3.org/1999/xlink" width="1111.016" height="836.292" viewBox="0 0 1111.016 836.292">
  <defs>
    <linearGradient id="linear-gradient" x1="0.5" y1="1" x2="0.5" gradientUnits="objectBoundingBox">
      <stop offset="0" stop-color="gray" stop-opacity="0.251"/>
      <stop offset="0.54" stop-color="gray" stop-opacity="0.122"/>
      <stop offset="1" stop-color="gray" stop-opacity="0.102"/>
    </linearGradient>
    <linearGradient id="linear-gradient-2" x1="0.5" y1="1" x2="0.5" y2="0" xlink:href="#linear-gradient"/>
    <linearGradient id="linear-gradient-4" x1="0.501" y1="0.999" x2="0.501" y2="-0.001" xlink:href="#linear-gradient"/>
    <linearGradient id="linear-gradient-5" x1="0.5" y1="1" x2="0.5" y2="0.001" xlink:href="#linear-gradient"/>
    <linearGradient id="linear-gradient-7" x1="0.5" y1="1" x2="0.5" y2="0" xlink:href="#linear-gradient"/>
    <linearGradient id="linear-gradient-9" x1="0.5" y1="1" x2="0.5" y2="-0.001" xlink:href="#linear-gradient"/>
    <linearGradient id="linear-gradient-10" x1="0.5" y1="1" x2="0.5" y2="0" xlink:href="#linear-gradient"/>
    <linearGradient id="linear-gradient-14" x1="0.5" y1="1" x2="0.5" y2="0.001" xlink:href="#linear-gradient"/>
    <linearGradient id="linear-gradient-16" x1="0.5" y1="1" x2="0.5" y2="0" xlink:href="#linear-gradient"/>
    <linearGradient id="linear-gradient-17" x1="0.5" y1="1" x2="0.5" y2="0" xlink:href="#linear-gradient"/>
    <linearGradient id="linear-gradient-19" x1="0.5" y1="1" x2="0.5" y2="0" xlink:href="#linear-gradient"/>
    <linearGradient id="linear-gradient-20" x1="0.5" y1="1" x2="0.5" y2="0" xlink:href="#linear-gradient"/>
    <linearGradient id="linear-gradient-21" x1="0.5" y1="1" x2="0.5" y2="0" xlink:href="#linear-gradient"/>
    <linearGradient id="linear-gradient-22" x1="0.5" y1="1" x2="0.5" y2="0" xlink:href="#linear-gradient"/>
    <linearGradient id="linear-gradient-25" x1="0.5" y1="0.999" x2="0.5" y2="0" xlink:href="#linear-gradient"/>
  </defs>
  <g id="desafio" transform="translate(-0.017 -0.038)">
    <path id="Caminho_661" data-name="Caminho 661" d="M979.63,195.7c7.28,69.4,64,127.57,117.56,166.57,17.92,13.06,37.27,26.52,48.57,48,13.81,26.21,11.38,57.12,2.53,80.58-16.12,42.77-52.19,70-93.91,70.84-36,.74-74.57-16.88-110.36-14.87-59.9,3.32-99.32,60.18-124.78,120.4-18,42.6-35.45,92.38-75.5,103-28.18,7.5-61.6-7.22-89.82-29.56-13.63-10.79-27.07-23.69-42-28.4-8.86-2.8-17.63-2.46-26-1.25C509.41,722.1,458.87,802,381,807.63c-52.59,3.84-110.19-27.91-157.43-73S137.83,631.85,101.33,574C75.39,532.89,48.93,487.84,45,441.06,40.79,391.56,64,350,96.77,329.39s74-23,114.73-18.56c50.94,5.53,105.34,20.87,149.36,1.19,30-13.4,51.59-41.69,74.93-66.35,39-41.22,84.39-73.4,129.94-104.75,43.6-30,88-59.64,138-76,35.44-11.61,73.1-7.69,109.51-14.43,23.74-4.39,43.48-18,68.42-18.59,30.72-.78,68.63,12.43,87.89,51.4C987.89,120.31,975.76,158.87,979.63,195.7Z" transform="translate(-44.49 -31.83)" fill="#8ae029" opacity="0.1"/>
    <path id="Caminho_662" data-name="Caminho 662" d="M834.57,45.45l-68.3-4.14-39.52-2.82v-.07h-1.04v.08L513.2,55.5H495.58l-2.07,73.35,34.21,12.06,20.73,105.5L454.12,433.28l-57,43.2v41.19l34.21,33.16,2.07,151.72,10.37,2v-1.61l5.21,1v.6l202.45,68.08,8.51,5.77,17.8-11.09,143.4-82.85ZM616.92,516.77h0l55.46-47h0Zm-192.35,19.5,15,14.57v.9Z" transform="translate(-44.49 -31.83)" fill="url(#linear-gradient)"/>
    <path id="Caminho_663" data-name="Caminho 663" d="M407.35,522.08l202,51-30-34-17-21-177-35-8,7Z" fill="#535461"/>
    <path id="Caminho_664" data-name="Caminho 664" d="M377.35,490.08l199,46,1-48-57-22-114-19h-33Z" fill="#d6d6e3"/>
    <path id="Caminho_665" data-name="Caminho 665" d="M521.35,218.08l203,13v-38l-14-85-7-6-203,6Z" fill="#d6d6e3"/>
    <path id="Caminho_666" data-name="Caminho 666" d="M473.35,27.08h-10l-2,73,33,12,20,105-91,186-55,43v41l33,33,2,151,10,2-2-150-33-35-1-42,53-42,93-186-20-106-33-14,3-71Z" fill="#d6d6e3"/>
    <path id="Caminho_667" data-name="Caminho 667" d="M465.35,27.08h-10l-2,73,33,12,20,105-91,186-55,43v41l33,33,2,151,10,2-2-150-33-35-1-42,55-42,91-186-20-106-33-14,3-71Z" fill="#535461"/>
    <path id="Caminho_668" data-name="Caminho 668" d="M464.85,92.58l5,7,28,13,222-6-21.5-6.5-23-10,3-8Z" fill="#a8a8a8"/>
    <path id="Caminho_669" data-name="Caminho 669" d="M427.35,407.08l203,33,41-87,56-125-206-10Z" fill="#7ddd10"/>
    <g id="Grupo_43" data-name="Grupo 43" opacity="0.1">
      <path id="Caminho_670" data-name="Caminho 670" d="M532.35,254.08l137,11-71,140-133-20Z" fill="#fff"/>
    </g>
    <g id="Grupo_44" data-name="Grupo 44" opacity="0.1">
      <path id="Caminho_671" data-name="Caminho 671" d="M541.8,264.25l6.05.49-3.13,6.17-5.87-.88Z" fill="#fff"/>
    </g>
    <g id="Grupo_45" data-name="Grupo 45" opacity="0.1">
      <path id="Caminho_672" data-name="Caminho 672" d="M542.8,322.25l6.05.49-3.13,6.17-5.87-.88Z" fill="#fff"/>
    </g>
    <g id="Grupo_46" data-name="Grupo 46" opacity="0.1">
      <path id="Caminho_673" data-name="Caminho 673" d="M575.8,271.25l6.05.49-3.13,6.17-5.87-.88Z" fill="#fff"/>
    </g>
    <g id="Grupo_47" data-name="Grupo 47" opacity="0.1">
      <path id="Caminho_674" data-name="Caminho 674" d="M638.8,274.25l6.05.49-3.13,6.17-5.87-.88Z" fill="#fff"/>
    </g>
    <g id="Grupo_48" data-name="Grupo 48" opacity="0.1">
      <path id="Caminho_675" data-name="Caminho 675" d="M553.8,282.25l6.05.49-3.13,6.17-5.87-.88Z" fill="#fff"/>
    </g>
    <g id="Grupo_49" data-name="Grupo 49" opacity="0.1">
      <path id="Caminho_676" data-name="Caminho 676" d="M575.8,343.25l6.05.49-3.13,6.17-5.87-.88Z" fill="#fff"/>
    </g>
    <g id="Grupo_50" data-name="Grupo 50" opacity="0.1">
      <path id="Caminho_677" data-name="Caminho 677" d="M521.8,308.25l6.05.49-3.13,6.17-5.87-.88Z" fill="#fff"/>
    </g>
    <g id="Grupo_51" data-name="Grupo 51" opacity="0.1">
      <path id="Caminho_678" data-name="Caminho 678" d="M613.8,271.25l6.05.49-3.13,6.17-5.87-.88Z" fill="#fff"/>
    </g>
    <g id="Grupo_52" data-name="Grupo 52" opacity="0.1">
      <path id="Caminho_679" data-name="Caminho 679" d="M565.8,305.25l6.05.49-3.13,6.17-5.87-.88Z" fill="#fff"/>
    </g>
    <g id="Grupo_53" data-name="Grupo 53" opacity="0.1">
      <path id="Caminho_680" data-name="Caminho 680" d="M558.8,267.25l6.05.49-3.13,6.17-5.87-.88Z" fill="#fff"/>
    </g>
    <g id="Grupo_54" data-name="Grupo 54" opacity="0.1">
      <path id="Caminho_681" data-name="Caminho 681" d="M589.8,302.25l6.05.49-3.13,6.17-5.87-.88Z" fill="#fff"/>
    </g>
    <g id="Grupo_55" data-name="Grupo 55" opacity="0.1">
      <path id="Caminho_682" data-name="Caminho 682" d="M596.8,271.25l6.05.49-3.13,6.17-5.87-.88Z" fill="#fff"/>
    </g>
    <g id="Grupo_56" data-name="Grupo 56" opacity="0.1">
      <path id="Caminho_683" data-name="Caminho 683" d="M533.8,285.25l6.05.49-3.13,6.17-5.87-.88Z" fill="#fff"/>
    </g>
    <path id="Caminho_684" data-name="Caminho 684" d="M373.35,447.08l198,40,54.54-47.72L427.85,405.58Z" fill="#d6d6e3"/>
    <path id="Caminho_685" data-name="Caminho 685" d="M410.35,517.08v156l196,68,3-162-8-15.07-36-8.93Z" fill="#535461"/>
    <ellipse id="Elipse_21" data-name="Elipse 21" cx="8.5" cy="5" rx="8.5" ry="5" transform="translate(427.35 415.08)" fill="#575988"/>
    <ellipse id="Elipse_22" data-name="Elipse 22" cx="8.5" cy="5" rx="8.5" ry="5" transform="translate(434.35 426.08)" fill="#fa595f"/>
    <ellipse id="Elipse_23" data-name="Elipse 23" cx="8.5" cy="5" rx="8.5" ry="5" transform="translate(410.35 423.08)" fill="#ffd037"/>
    <ellipse id="Elipse_24" data-name="Elipse 24" cx="8.5" cy="5" rx="8.5" ry="5" transform="translate(518.35 433.08)" fill="#575988"/>
    <ellipse id="Elipse_25" data-name="Elipse 25" cx="8.5" cy="5" rx="8.5" ry="5" transform="translate(501.35 442.08)" fill="#ffd037"/>
    <ellipse id="Elipse_26" data-name="Elipse 26" cx="12.5" cy="6" rx="12.5" ry="6" transform="translate(465.35 426.08)" fill="#a8a8a8"/>
    <ellipse id="Elipse_27" data-name="Elipse 27" cx="8.5" cy="5" rx="8.5" ry="5" transform="translate(527.35 444.08)" fill="#fa595f"/>
    <path id="Caminho_686" data-name="Caminho 686" d="M525.84,462.92h-6L514.68,443a5.67,5.67,0,0,1,5.49-7.09h0a5.67,5.67,0,0,1,5.67,5.67Z" transform="translate(-44.49 -31.83)" fill="#a8a8a8"/>
    <ellipse id="Elipse_28" data-name="Elipse 28" cx="12.5" cy="6" rx="12.5" ry="6" transform="translate(555.35 442.08)" fill="#a8a8a8"/>
    <path id="Caminho_687" data-name="Caminho 687" d="M615.84,478.92h-6L604.68,459a5.67,5.67,0,0,1,5.49-7.09h0a5.67,5.67,0,0,1,5.67,5.67Z" transform="translate(-44.49 -31.83)" fill="#a8a8a8"/>
    <path id="Caminho_688" data-name="Caminho 688" d="M472.35,27.08l206-17-5,75-206,10Z" fill="#535461"/>
    <path id="Caminho_689" data-name="Caminho 689" d="M677.35,10.08l95,7-13,636-145.5,93.5-10-7-.5-166.5-32-36v-50l56-49,95-211-13.5-120.5h7l-44.5-15.5Z" fill="#d6d6e3"/>
    <path id="Caminho_690" data-name="Caminho 690" d="M686.35,11.08l96,6-13,636-156,93v-173l-32-36v-50l56-49,95-211-17-121-34-15Z" fill="#535461"/>
    <path id="Caminho_691" data-name="Caminho 691" d="M561.95,428.21c-14,29-48.46,21.48-48.46,21.48-1.78-1.65-12.92-4.41-21.37-6.32-5.42-1.23-9.73-2.09-9.73-2.09l11.83-16.49,8.87,1.82,13.23,2.72S576,399.22,561.95,428.21Z" transform="translate(-44.49 -31.83)" fill="url(#linear-gradient-2)"/>
    <g id="Grupo_57" data-name="Grupo 57" opacity="0.08">
      <path id="Caminho_692" data-name="Caminho 692" d="M561.95,428.21c-14,29-48.46,21.48-48.46,21.48-1.78-1.65-12.92-4.41-21.37-6.32-5.42-1.23-9.73-2.09-9.73-2.09l11.83-16.49,8.87,1.82,13.23,2.72S576,399.22,561.95,428.21Z" transform="translate(-44.49 -31.83)" fill="url(#linear-gradient-2)"/>
    </g>
    <g id="Grupo_58" data-name="Grupo 58" opacity="0.1">
      <path id="Caminho_693" data-name="Caminho 693" d="M503.1,426.61l-11,16.77c-5.42-1.23-9.73-2.09-9.73-2.09L494.2,424.8Z" transform="translate(-44.49 -31.83)" fill="url(#linear-gradient-4)"/>
    </g>
    <path id="Caminho_694" data-name="Caminho 694" d="M380.12,366.67s51.57,80.59,106.79,80.4l15-23s-50.54-36.1-57.26-54.92c-2.48-7-7.6-16.59-13.06-26-16.77-28.83-62-10-52.06,21.68Q379.82,365.77,380.12,366.67Z" transform="translate(-44.49 -31.83)" fill="url(#linear-gradient-5)"/>
    <g id="Grupo_59" data-name="Grupo 59" opacity="0.05">
      <path id="Caminho_695" data-name="Caminho 695" d="M380.12,366.67s51.57,80.59,106.79,80.4l15-23s-50.54-36.1-57.26-54.92c-2.48-7-7.6-16.59-13.06-26-16.77-28.83-62-10-52.06,21.68Q379.82,365.77,380.12,366.67Z" transform="translate(-44.49 -31.83)" fill="url(#linear-gradient-5)"/>
    </g>
    <path id="Caminho_696" data-name="Caminho 696" d="M346.55,835.1l2.42,28s79.21-13.16,78.52-39.47S346.55,835.1,346.55,835.1Z" transform="translate(-44.49 -31.83)" fill="url(#linear-gradient-7)"/>
    <g id="Grupo_60" data-name="Grupo 60" opacity="0.1">
      <path id="Caminho_697" data-name="Caminho 697" d="M346.55,835.1l2.42,28s79.21-13.16,78.52-39.47S346.55,835.1,346.55,835.1Z" transform="translate(-44.49 -31.83)" fill="url(#linear-gradient-7)"/>
    </g>
    <path id="Caminho_698" data-name="Caminho 698" d="M439.25,843.87l-1.38,24.29s110-8.1,105.84-31S481.45,827,481.45,827Z" transform="translate(-44.49 -31.83)" fill="url(#linear-gradient-9)"/>
    <path id="Caminho_699" data-name="Caminho 699" d="M440.63,606.37s-6.5,18-14.8,38.62c-7.94,19.74-17.52,41.93-24.63,53.14-14.53,22.94-16.6,93.79-16.6,93.79-2.77,11.47,11.07,33.74,11.07,33.74-27.67,29-53.27,12.15-53.27,12.15,4.84-8.77-3.46-33.74-3.46-33.74s11.07-115.38,18-120.78,12.45-32.39,12.45-32.39l-6.19-91.72-1.42-21,59.49-26.31,4.29,20.92,4.25,20.71Z" transform="translate(-44.49 -31.83)" fill="url(#linear-gradient-10)"/>
    <g id="Grupo_61" data-name="Grupo 61" opacity="0.1">
      <path id="Caminho_700" data-name="Caminho 700" d="M440.63,606.37s-6.5,18-14.8,38.62c-7.94,19.74-17.52,41.93-24.63,53.14-14.53,22.94-16.6,93.79-16.6,93.79-2.77,11.47,11.07,33.74,11.07,33.74-27.67,29-53.27,12.15-53.27,12.15,4.84-8.77-3.46-33.74-3.46-33.74s11.07-115.38,18-120.78,12.45-32.39,12.45-32.39l-6.19-91.72-1.42-21,59.49-26.31,4.29,20.92,4.25,20.71Z" transform="translate(-44.49 -31.83)" fill="url(#linear-gradient-10)"/>
    </g>
    <path id="Caminho_701" data-name="Caminho 701" d="M492.51,829.71c-12.45,21.59-56,18.89-56,18.89V785.17s-12.45-70.85-5.53-87-2.77-45.88-2.77-45.88L425.83,645l-28.21-87-8.18-25.22h93.39v11.34c.12,27,.68,93.91,3.43,109.44,3.46,19.57-6.23,32.39-6.23,32.39s5.53,79.62.69,104.58S492.51,829.71,492.51,829.71Z" transform="translate(-44.49 -31.83)" fill="url(#linear-gradient-10)"/>
    <path id="Caminho_702" data-name="Caminho 702" d="M415.73,236.61s-14.53,39.13-43.58,53.3,47.73,18.22,47.73,18.22,12.45-29.69,40.81-50.61Z" transform="translate(-44.49 -31.83)" fill="url(#linear-gradient)"/>
    <g id="Grupo_62" data-name="Grupo 62" opacity="0.1">
      <path id="Caminho_703" data-name="Caminho 703" d="M482.86,544.16c-11.58,2.23-32.07,6.05-53.06,9.37-11,1.74-22.12,3.34-32.18,4.5-15.48,1.79-28.43,2.54-34.43,1.14l-1.42-21,59.49-26.31,4.29,20.92h57.28S482.83,537.14,482.86,544.16Z" transform="translate(-44.49 -31.83)" fill="url(#linear-gradient-14)"/>
    </g>
    <path id="Caminho_704" data-name="Caminho 704" d="M492.51,540.24s-116.91,23.62-131.43,16.2-18-26.31-13.84-47.23,0-72.87-7.61-139c-3.83-33.3,4.61-55.65,13.95-69.63a44.41,44.41,0,0,1,37-19.43,56,56,0,0,1,34.87,12c2.92,2.33,5.87,4.24,8.28,4.89,1.9.51,4.76,2.53,8,5.28A73.67,73.67,0,0,1,467,352.23c1.2,12.57,2.47,28.4,3.09,44.4a361.009,361.009,0,0,1-.42,41,134.37,134.37,0,0,0,1.42,29.91C476.48,504,492.51,540.24,492.51,540.24Z" transform="translate(-44.49 -31.83)" fill="url(#linear-gradient)"/>
    <g id="Grupo_63" data-name="Grupo 63" opacity="0.1">
      <path id="Caminho_705" data-name="Caminho 705" d="M471.1,467.59c-42.43-25.82-64.37-98.06-64.37-98.06a16.344,16.344,0,0,0-.07-1.86c-.95-33.13,47.83-39.51,56.11-7.36,2.69,10.47,5,21.09,5.48,28.43a30.39,30.39,0,0,0,1.85,7.89,361,361,0,0,1-.42,41,134.37,134.37,0,0,0,1.42,29.96Z" transform="translate(-44.49 -31.83)" fill="url(#linear-gradient-16)"/>
    </g>
    <g id="Grupo_64" data-name="Grupo 64" opacity="0.1">
      <path id="Caminho_706" data-name="Caminho 706" d="M408.46,259.89c6.9,11.41,12.36,22.9,26.37,24.85a126.9,126.9,0,0,1,23.78-23.16l-45-20.92S416.25,247.8,408.46,259.89Z" transform="translate(-44.49 -31.83)" fill="url(#linear-gradient-17)"/>
    </g>
    <ellipse id="Elipse_29" data-name="Elipse 29" cx="45.66" cy="44.53" rx="45.66" ry="44.53" transform="translate(353.25 160.24)" fill="url(#linear-gradient-2)"/>
    <g id="Grupo_65" data-name="Grupo 65" opacity="0.1">
      <path id="Caminho_707" data-name="Caminho 707" d="M488.53,250.57a9.33,9.33,0,0,0,5.36-1.42c2.19-1.59,2.89-4.44,3.39-7.06,1.19-6.19,2.12-12.71,0-18.67-1.37-3.94-4-7.35-5.84-11.09-4.1-8.17-4.83-18-10.68-25.09-3.65-4.44-16.48,0-21.84-2.24-11.52-4.84-16.52-14.66-29.07-14.65a46.37,46.37,0,0,0-13.62,1.7c-5.61,1.73-10.57,5-15.18,8.59-8,6.22-15.84,14.76-15.13,24.74.46,6.37,4.35,12,6.64,17.94,3.84,10,3.14,21.24.37,31.6-1.18,4.41-2.53,9.68.6,13.05,2,2.11,5.17,2.71,8,2.25a26.64,26.64,0,0,0,8-3.2c4.5-2.39,9.06-4.82,12.7-8.33,2.41-2.32,4.35-5.06,6.64-7.49a73.4,73.4,0,0,1,15.1-12c4.43-2.66,9-1,13.65.73C467.84,243.68,477.29,250.77,488.53,250.57Z" transform="translate(-44.49 -31.83)" fill="url(#linear-gradient-19)"/>
    </g>
    <path id="Caminho_708" data-name="Caminho 708" d="M487.84,249.89a9.33,9.33,0,0,0,5.36-1.42c2.19-1.59,2.89-4.44,3.39-7.06,1.19-6.19,2.12-12.71,0-18.67-1.37-3.94-4-7.35-5.84-11.09-4.1-8.17-4.83-18-10.68-25.09-3.65-4.44-15.79.68-21.15-1.57-11.52-4.84-17.21-15.33-29.76-15.32a46.37,46.37,0,0,0-13.62,1.7c-5.61,1.73-10.57,5-15.18,8.59-8,6.22-15.84,14.76-15.13,24.74.46,6.37,4.35,12,6.64,17.94,3.84,10,3.14,21.24.37,31.6-1.18,4.41-2.53,9.68.6,13.05,2,2.11,5.17,2.71,8,2.25a26.64,26.64,0,0,0,8-3.2c4.5-2.39,9.06-4.82,12.7-8.33,2.41-2.32,4.35-5.06,6.64-7.49a73.4,73.4,0,0,1,15.1-12c4.43-2.66,9-1,13.65.73C467.15,243,476.6,250.09,487.84,249.89Z" transform="translate(-44.49 -31.83)" fill="url(#linear-gradient-20)"/>
    <g id="Grupo_66" data-name="Grupo 66" opacity="0.05">
      <path id="Caminho_709" data-name="Caminho 709" d="M471.1,467.59a134.372,134.372,0,0,1-1.42-29.91,361.009,361.009,0,0,0,.42-41c-.62-16-1.88-31.83-3.09-44.4a73.67,73.67,0,0,0-25.33-48.94c-3.21-2.75-6.07-4.78-8-5.28-2.41-.64-5.36-2.56-8.28-4.89-9.82-7.83,2.66,7.42,5.87,10.17a73.67,73.67,0,0,1,25.33,48.94c1.2,12.57,2.47,28.4,3.09,44.4a361.009,361.009,0,0,1-.42,41,134.373,134.373,0,0,0,1.42,29.91c5.38,36.43,21.41,72.65,21.41,72.65s-78.26,15.81-114.68,17.49c28.54,2,125.05-17.49,125.05-17.49S476.48,504,471.1,467.59Z" transform="translate(-44.49 -31.83)" fill="url(#linear-gradient-21)"/>
    </g>
    <path id="Caminho_710" data-name="Caminho 710" d="M566.53,474.12c-21.45,24.29-52.57,8.1-52.57,8.1-1.27-2.06-11.25-7.61-18.86-11.65-4.89-2.59-8.81-4.55-8.81-4.55L502.2,453.2l8.05,4.06,12,6.06S588,449.83,566.53,474.12Z" transform="translate(-44.49 -31.83)" fill="url(#linear-gradient-22)"/>
    <g id="Grupo_67" data-name="Grupo 67" opacity="0.1">
      <path id="Caminho_711" data-name="Caminho 711" d="M510.25,457.26,495.1,470.57c-4.89-2.59-8.81-4.55-8.81-4.55L502.2,453.2Z" transform="translate(-44.49 -31.83)" fill="url(#linear-gradient)"/>
    </g>
    <path id="Caminho_712" data-name="Caminho 712" d="M408.12,367.51s27.67,91.09,80.94,105.26l20.75-18.22S471,406.61,469.64,386.72c-.49-7.35-2.79-18-5.48-28.43-8.28-32.14-57.06-25.77-56.11,7.36Q408.08,366.57,408.12,367.51Z" transform="translate(-44.49 -31.83)" fill="url(#linear-gradient)"/>
    <path id="Caminho_713" data-name="Caminho 713" d="M354.51,456.24s18-14.17,34.59-3.37,40.81,9.45,44.27,10.12" transform="translate(-44.49 -31.83)" opacity="0.05" fill="url(#linear-gradient-25)"/>
    <path id="Caminho_714" data-name="Caminho 714" d="M556.77,426.73c-13.35,28.28-46.12,21-46.12,21-1.7-1.61-12.3-4.3-20.33-6.16-5.16-1.2-9.26-2-9.26-2l11.26-16.09,8.44,1.78,12.59,2.65S570.12,398.44,556.77,426.73Z" transform="translate(-44.49 -31.83)" fill="#f7c4a7"/>
    <path id="Caminho_715" data-name="Caminho 715" d="M556.77,426.73c-13.35,28.28-46.12,21-46.12,21-1.7-1.61-12.3-4.3-20.33-6.16-5.16-1.2-9.26-2-9.26-2l11.26-16.09,8.44,1.78,12.59,2.65S570.12,398.44,556.77,426.73Z" transform="translate(-44.49 -31.83)" opacity="0.08"/>
    <path id="Caminho_716" data-name="Caminho 716" d="M500.76,425.16l-10.44,16.36c-5.16-1.2-9.26-2-9.26-2l11.26-16.09Z" transform="translate(-44.49 -31.83)" opacity="0.1"/>
    <path id="Caminho_717" data-name="Caminho 717" d="M383.73,366.68s49.08,78.64,101.62,78.44l14.29-22.4s-48.09-35.22-54.49-53.59c-2.36-6.78-7.23-16.18-12.42-25.34-16-28.12-59-9.75-49.55,21.16Z" transform="translate(-44.49 -31.83)" fill="#575988"/>
    <path id="Caminho_718" data-name="Caminho 718" d="M383.73,366.68s49.08,78.64,101.62,78.44l14.29-22.4s-48.09-35.22-54.49-53.59c-2.36-6.78-7.23-16.18-12.42-25.34-16-28.12-59-9.75-49.55,21.16Z" transform="translate(-44.49 -31.83)" opacity="0.05"/>
    <path id="Caminho_719" data-name="Caminho 719" d="M351.78,823.73l2.3,27.32s75.38-12.84,74.72-38.51S351.78,823.73,351.78,823.73Z" transform="translate(-44.49 -31.83)" fill="#535461"/>
    <path id="Caminho_720" data-name="Caminho 720" d="M351.78,823.73l2.3,27.32s75.38-12.84,74.72-38.51S351.78,823.73,351.78,823.73Z" transform="translate(-44.49 -31.83)" opacity="0.1"/>
    <path id="Caminho_721" data-name="Caminho 721" d="M440,832.29,438.68,856s104.68-7.9,100.73-30.28-59.25-9.88-59.25-9.88Z" transform="translate(-44.49 -31.83)" fill="#535461"/>
    <path id="Caminho_722" data-name="Caminho 722" d="M441.31,600.55s-6.19,17.54-14.09,37.68c-7.56,19.26-16.68,40.91-23.44,51.85C390,712.47,388,781.59,388,781.59c-2.63,11.19,10.53,32.92,10.53,32.92-26.33,28.31-50.69,11.85-50.69,11.85,4.61-8.56-3.29-32.92-3.29-32.92s10.53-112.58,17.12-117.84S373.51,644,373.51,644l-5.89-89.49-1.35-20.45,56.62-25.68L427,528.79,431,549Z" transform="translate(-44.49 -31.83)" fill="#6a5c99"/>
    <path id="Caminho_723" data-name="Caminho 723" d="M441.31,600.55s-6.19,17.54-14.09,37.68c-7.56,19.26-16.68,40.91-23.44,51.85C390,712.47,388,781.59,388,781.59c-2.63,11.19,10.53,32.92,10.53,32.92-26.33,28.31-50.69,11.85-50.69,11.85,4.61-8.56-3.29-32.92-3.29-32.92s10.53-112.58,17.12-117.84S373.51,644,373.51,644l-5.89-89.49-1.35-20.45,56.62-25.68L427,528.79,431,549Z" transform="translate(-44.49 -31.83)" opacity="0.1"/>
    <path id="Caminho_724" data-name="Caminho 724" d="M490.69,818.46c-11.85,21.07-53.33,18.43-53.33,18.43V775s-11.85-69.13-5.27-84.93-2.63-44.77-2.63-44.77l-2.24-7.08-26.85-84.84-7.78-24.6h88.88v11.07c.11,26.33.65,91.63,3.27,106.78,3.29,19.09-5.93,31.6-5.93,31.6s5.27,77.68.66,102S490.69,818.46,490.69,818.46Z" transform="translate(-44.49 -31.83)" fill="#6a5c99"/>
    <path id="Caminho_725" data-name="Caminho 725" d="M417.61,239.78s-13.83,38.18-41.48,52,45.43,17.78,45.43,17.78,11.85-29,38.84-49.38Z" transform="translate(-44.49 -31.83)" fill="#f7c4a7"/>
    <path id="Caminho_726" data-name="Caminho 726" d="M481.5,539.86C470.48,542,451,545.76,431,549c-10.46,1.7-21.05,3.26-30.63,4.39-14.73,1.74-27.06,2.48-32.77,1.11l-1.35-20.45,56.62-25.68L427,528.79h54.51S481.47,533,481.5,539.86Z" transform="translate(-44.49 -31.83)" opacity="0.1"/>
    <path id="Caminho_727" data-name="Caminho 727" d="M490.69,536s-111.26,23-125.08,15.8-17.12-25.68-13.17-46.08,0-71.1-7.24-135.62c-3.65-32.49,4.39-54.29,13.27-67.94a42,42,0,0,1,35.2-19,52.41,52.41,0,0,1,33.18,11.69c2.78,2.27,5.59,4.14,7.88,4.77,1.81.49,4.53,2.47,7.58,5.15a72.49,72.49,0,0,1,24.11,47.75c1.15,12.26,2.35,27.71,2.94,43.33a361.128,361.128,0,0,1-.39,40,134.371,134.371,0,0,0,1.35,29.18C475.43,500.69,490.69,536,490.69,536Z" transform="translate(-44.49 -31.83)" fill="#575988"/>
    <path id="Caminho_728" data-name="Caminho 728" d="M470.31,465.15c-40.38-25.19-61.26-95.68-61.26-95.68a15.476,15.476,0,0,0-.07-1.81c-.9-32.32,45.52-38.55,53.4-7.18,2.56,10.22,4.75,20.57,5.21,27.74a30.279,30.279,0,0,0,1.76,7.7,361.136,361.136,0,0,1-.39,40,134.365,134.365,0,0,0,1.35,29.23Z" transform="translate(-44.49 -31.83)" opacity="0.1"/>
    <path id="Caminho_729" data-name="Caminho 729" d="M410.7,262.49c6.56,11.13,11.76,22.35,25.1,24.24a122.241,122.241,0,0,1,22.63-22.6l-42.79-20.41S418.11,250.7,410.7,262.49Z" transform="translate(-44.49 -31.83)" opacity="0.1"/>
    <circle id="Elipse_30" data-name="Elipse 30" cx="43.45" cy="43.45" r="43.45" transform="translate(356.01 164.5)" fill="#f7c4a7"/>
    <path id="Caminho_730" data-name="Caminho 730" d="M486.9,253.4A8.72,8.72,0,0,0,492,252c2.08-1.55,2.75-4.34,3.22-6.89,1.13-6,2-12.4,0-18.22-1.3-3.85-3.77-7.17-5.56-10.82-3.91-8-4.6-17.56-10.16-24.48-3.48-4.33-15.68,0-20.79-2.19-11-4.72-15.72-14.3-27.66-14.29a43.1,43.1,0,0,0-13,1.66c-5.34,1.68-10.06,4.9-14.44,8.38-7.64,6.07-15.08,14.4-14.4,24.14.44,6.22,4.14,11.66,6.32,17.5,3.66,9.78,3,20.73.35,30.83-1.12,4.3-2.41,9.44.57,12.74,1.86,2.05,4.92,2.65,7.65,2.19a25,25,0,0,0,7.65-3.12c4.28-2.33,8.62-4.7,12.08-8.12,2.29-2.27,4.14-4.94,6.32-7.31a70.17,70.17,0,0,1,14.37-11.71c4.22-2.59,8.55-1,13,.71C467.21,246.68,476.2,253.6,486.9,253.4Z" transform="translate(-44.49 -31.83)" opacity="0.1"/>
    <path id="Caminho_731" data-name="Caminho 731" d="M486.24,252.74a8.72,8.72,0,0,0,5.1-1.38c2.08-1.55,2.75-4.34,3.22-6.89,1.13-6,2-12.4,0-18.22-1.3-3.85-3.77-7.17-5.56-10.82-3.91-8-4.6-17.56-10.16-24.48-3.48-4.33-15,.67-20.13-1.53-11-4.72-16.38-15-28.32-15a43.1,43.1,0,0,0-13,1.66c-5.34,1.68-10.06,4.9-14.44,8.38-7.64,6.07-15.08,14.4-14.4,24.14.44,6.22,4.14,11.66,6.32,17.5,3.66,9.78,3,20.73.35,30.83-1.12,4.3-2.41,9.44.57,12.74,1.86,2.05,4.92,2.65,7.65,2.19a25,25,0,0,0,7.65-3.12c4.28-2.33,8.62-4.7,12.08-8.12,2.29-2.27,4.14-4.94,6.32-7.31A70.168,70.168,0,0,1,444,241.64c4.22-2.59,8.55-1,13,.71C466.55,246,475.54,252.94,486.24,252.74Z" transform="translate(-44.49 -31.83)" fill="#632652"/>
    <path id="Caminho_732" data-name="Caminho 732" d="M470.31,465.15A134.368,134.368,0,0,1,469,436a361.12,361.12,0,0,0,.39-40c-.59-15.62-1.79-31.06-2.94-43.33a72.49,72.49,0,0,0-24.11-47.75c-3.05-2.69-5.77-4.66-7.58-5.15-2.29-.63-5.1-2.5-7.88-4.77-9.35-7.64,2.53,7.24,5.59,9.92a72.49,72.49,0,0,1,24.11,47.75c1.15,12.26,2.35,27.71,2.94,43.33a361.121,361.121,0,0,1-.39,40,134.369,134.369,0,0,0,1.35,29.18c5.12,35.54,20.38,70.88,20.38,70.88s-74.48,15.42-109.13,17.07c27.16,2,119-17.07,119-17.07S475.43,500.69,470.31,465.15Z" transform="translate(-44.49 -31.83)" opacity="0.05"/>
    <path id="Caminho_733" data-name="Caminho 733" d="M561.13,471.52c-20.41,23.7-50,7.9-50,7.9-1.2-2-10.7-7.43-18-11.36-4.65-2.53-8.38-4.44-8.38-4.44l15.14-12.51,7.66,4L519,461S581.54,447.82,561.13,471.52Z" transform="translate(-44.49 -31.83)" fill="#f7c4a7"/>
    <path id="Caminho_734" data-name="Caminho 734" d="M507.57,455.07l-14.42,13c-4.65-2.53-8.38-4.44-8.38-4.44l15.14-12.51Z" transform="translate(-44.49 -31.83)" opacity="0.1"/>
    <path id="Caminho_735" data-name="Caminho 735" d="M410.37,367.5s26.33,88.88,77,102.7l19.75-17.78s-37-46.77-38.23-66.18c-.47-7.17-2.65-17.53-5.22-27.74-7.88-31.36-54.3-25.14-53.39,7.18Q410.33,366.58,410.37,367.5Z" transform="translate(-44.49 -31.83)" fill="#575988"/>
    <path id="Caminho_736" data-name="Caminho 736" d="M359.35,454.07s17.12-13.83,32.92-3.29,38.84,9.22,42.13,9.88" transform="translate(-44.49 -31.83)" opacity="0.05"/>
  </g>
</svg>
