<svg xmlns="http://www.w3.org/2000/svg" width="558.111" height="559.998" viewBox="0 0 558.111 559.998">
  <g id="noun-exit-1472515" transform="translate(-70.953 -0.001)">
    <path id="Caminho_1172" data-name="Caminho 1172" d="M154.77,42.09l97.949,52.16c18.656,9.938,33.781,35.129,33.781,56.266v281.87h125a20.406,20.406,0,0,0,20.4-20.4V318.25A19.145,19.145,0,0,1,451.039,299.1h3.816a19.1,19.1,0,0,1,19.137,19.137V436.2a38.264,38.264,0,0,1-38.258,38.277H286.5v61.207c0,21.141-15.117,30.227-33.785,20.289L92.429,470.6q-1.189-.58-2.324-1.234l-5.25-3.652a38.2,38.2,0,0,1-13.9-29.52V38.278A38.264,38.264,0,0,1,109.211,0h326.53A38.265,38.265,0,0,1,474,38.278v117.96a19.142,19.142,0,0,1-19.137,19.137h-3.816a19.111,19.111,0,0,1-19.137-19.152V62.489a20.4,20.4,0,0,0-20.4-20.4ZM510.98,267.25H408.94a30.611,30.611,0,0,1,0-61.222H510.98V179.876c0-21.129,14.059-28.469,31.4-16.4l73.684,51.3c17.34,12.074,17.34,31.648,0,43.723l-73.684,51.3c-17.336,12.074-31.395,4.723-31.395-16.4Z"/>
  </g>
</svg>
