<svg xmlns="http://www.w3.org/2000/svg" width="532.56" height="333.2" viewBox="0 0 532.56 333.2">
  <g id="noun-levels-3082135" transform="translate(-84 -113.68)">
    <path id="Caminho_1289" data-name="Caminho 1289" d="M205.52,306.88H96.32A12.431,12.431,0,0,0,84,319.2V434a12.431,12.431,0,0,0,12.32,12.32H206.08A12.431,12.431,0,0,0,218.4,434l0-114.8c-.559-6.719-6.16-12.32-12.879-12.32Z" fill="#a553d6"/>
    <path id="Caminho_1290" data-name="Caminho 1290" d="M404.88,210.56H295.12a12.431,12.431,0,0,0-12.32,12.32V434.56a12.431,12.431,0,0,0,12.32,12.32H404.88a12.431,12.431,0,0,0,12.32-12.32l0-212.24c-.559-6.719-5.6-11.762-12.32-11.762Z" fill="#a553d6"/>
    <path id="Caminho_1291" data-name="Caminho 1291" d="M603.68,113.68H494.48A12.431,12.431,0,0,0,482.16,126V434.56a12.431,12.431,0,0,0,12.32,12.32H604.24a12.431,12.431,0,0,0,12.32-12.32l0-308.56c-.559-6.719-6.16-12.32-12.879-12.32Z" fill="#a553d6"/>
  </g>
</svg>
