<svg xmlns="http://www.w3.org/2000/svg" width="560.004" height="560.004" viewBox="0 0 560.004 560.004">
  <g id="noun-list-2804963" transform="translate(-69.998)">
    <path id="Caminho_6" data-name="Caminho 6" d="M564.67,0H135.33A65.338,65.338,0,0,0,70,65.332v429.34A65.338,65.338,0,0,0,135.33,560H564.67A65.338,65.338,0,0,0,630,494.672V65.332A65.338,65.338,0,0,0,564.67,0ZM191.65,458.15a39.591,39.591,0,1,1,27.992-11.594A39.572,39.572,0,0,1,191.65,458.15Zm0-138.56v0A39.6,39.6,0,1,1,219.642,308a39.576,39.576,0,0,1-27.992,11.6Zm0-138.56v0a39.591,39.591,0,1,1,27.992-11.594,39.589,39.589,0,0,1-27.992,11.594Zm336.5,257.33-217.74,0a19.795,19.795,0,0,1,0-39.589H528.15a19.795,19.795,0,0,1,0,39.589Zm0-138.56-217.74,0a19.795,19.795,0,0,1,0-39.589H528.15a19.795,19.795,0,0,1,0,39.589Zm0-138.56-217.74.008a19.795,19.795,0,0,1,0-39.59H528.15a19.795,19.795,0,1,1,0,39.59Z" fill="#fff"/>
  </g>
</svg>
