<svg xmlns="http://www.w3.org/2000/svg" width="350.004" height="443.332" viewBox="0 0 350.004 443.332">
  <g id="lock" transform="translate(-175 -58.333)">
    <path id="Caminho_1" data-name="Caminho 1" d="M175,256.67V478.33a23.339,23.339,0,0,0,23.332,23.336h303.34A23.339,23.339,0,0,0,525,478.33V256.67a23.339,23.339,0,0,0-23.332-23.336H198.332A23.339,23.339,0,0,0,175,256.67Zm181.65,47.25a35,35,0,0,1,18.434,58.332,5.968,5.968,0,0,0-1.75,4.082v59.5a5.835,5.835,0,0,1-5.832,5.836h-35a5.833,5.833,0,0,1-5.832-5.836V366.8a5.735,5.735,0,0,0-1.75-4.086A34.285,34.285,0,0,1,315,338.334,35,35,0,0,1,356.65,303.92Z" fill="#333"/>
    <path id="Caminho_2" data-name="Caminho 2" d="M478.33,210V186.668a128.334,128.334,0,1,0-256.668,0V210H268.33l0-23.332a81.668,81.668,0,0,1,163.336,0V210Z" fill="#333"/>
  </g>
</svg>
