<svg xmlns="http://www.w3.org/2000/svg" width="395.389" height="431.201" viewBox="0 0 395.389 431.201">
  <g id="noun-notification-1206591" transform="translate(-146.986 -61.599)">
    <path id="Caminho_1130" data-name="Caminho 1130" d="M159.6,395.92A42.767,42.767,0,0,0,190.4,408.8h308.56a42.774,42.774,0,0,0,30.8-12.879,43.33,43.33,0,0,0-1.68-62.719l-14-12.32a43.239,43.239,0,0,1-14-31.922v-68.32c0-72.8-56-159.04-151.2-159.04h-8.4c-95.2,0-151.2,85.68-151.2,159.04v68.32a42.355,42.355,0,0,1-14,31.922l-14,12.32A43.323,43.323,0,0,0,159.6,395.92Z"/>
    <path id="Caminho_1131" data-name="Caminho 1131" d="M344.4,492.8A58.794,58.794,0,0,0,403.2,434H285.6a58.8,58.8,0,0,0,58.8,58.8Z"/>
  </g>
</svg>
