<svg xmlns="http://www.w3.org/2000/svg" width="461.462" height="461.467" viewBox="0 0 461.462 461.467">
  <path id="Caminho_1253" data-name="Caminho 1253" d="M580.73,495.35a15.377,15.377,0,0,1-15.383,15.383h-430.7a15.383,15.383,0,0,1,0-30.766h430.7A15.377,15.377,0,0,1,580.73,495.35ZM265.39,341.53a15.371,15.371,0,0,0-15.383-15.379H173.1a15.371,15.371,0,0,0-15.383,15.379V449.21h107.68ZM403.83,280a15.371,15.371,0,0,0-15.379-15.383H311.537A15.371,15.371,0,0,0,296.158,280V449.2h107.67Zm138.44-61.527a15.371,15.371,0,0,0-15.383-15.383h-76.91a15.371,15.371,0,0,0-15.383,15.383v230.73l107.68,0Zm23.074-169.21h-76.91a15.384,15.384,0,0,0-15.383,15.383v107.68h30.762V141.563h61.531a15.384,15.384,0,0,0,15.383-15.379V64.653A15.391,15.391,0,0,0,565.344,49.27Z" transform="translate(-119.268 -49.266)"/>
</svg>
