<svg xmlns="http://www.w3.org/2000/svg" width="525.621" height="560.001" viewBox="0 0 525.621 560.001">
  <g id="noun-settings-893723" transform="translate(-87.19 0.001)">
    <path id="Caminho_1251" data-name="Caminho 1251" d="M576.79,114.12a43.072,43.072,0,0,0-58.844-15.769L491.6,113.542a219.171,219.171,0,0,0-68.316-39.484V43.749C423.282,19.96,404.055,0,380.266,0H319.735c-23.789,0-43.016,19.938-43.016,43.75V74.058A219.178,219.178,0,0,0,208.4,113.542L182.067,98.351a43.084,43.084,0,0,0-58.855,15.769L92.97,166.534a43.069,43.069,0,0,0,15.761,58.844l26.25,15.172v0a220.36,220.36,0,0,0,0,78.9l-26.25,15.172v0A43.075,43.075,0,0,0,92.97,393.464l30.266,52.414a43.068,43.068,0,0,0,58.843,15.769l26.348-15.191a219.14,219.14,0,0,0,68.293,39.484V516.25c0,23.789,19.227,43.75,43.016,43.75h60.527c23.789,0,43.016-19.938,43.016-43.75l0-30.309A219.178,219.178,0,0,0,491.6,446.457l26.328,15.191h0a43.084,43.084,0,0,0,58.855-15.769l30.254-52.414A43.069,43.069,0,0,0,591.27,334.62l-26.25-15.172v0a220.36,220.36,0,0,0,0-78.895l26.25-15.172v0a43.075,43.075,0,0,0,15.761-58.855ZM350,388.4a108.4,108.4,0,1,1,76.652-31.75A108.413,108.413,0,0,1,350,388.4Z"/>
  </g>
</svg>
