<svg xmlns="http://www.w3.org/2000/svg" xmlns:xlink="http://www.w3.org/1999/xlink" width="127" height="202" viewBox="0 0 127 202">
  <defs>
    <clipPath id="clip-path">
      <rect width="127" height="202" fill="none"/>
    </clipPath>
  </defs>
  <g id="Repetição_de_grade_7" data-name="Repetição de grade 7" clip-path="url(#clip-path)">
    <g transform="translate(3222 -3531)">
      <g id="Retângulo_115" data-name="Retângulo 115" transform="translate(-3146 3588)" fill="none" stroke="#f3f3f3" stroke-width="1">
        <rect width="11" height="20" stroke="none"/>
        <rect x="0.5" y="0.5" width="10" height="19" fill="none"/>
      </g>
      <g id="Retângulo_116" data-name="Retângulo 116" transform="translate(-3117 3578)" fill="none" stroke="#f3f3f3" stroke-width="1">
        <rect width="11" height="12" stroke="none"/>
        <rect x="0.5" y="0.5" width="10" height="11" fill="none"/>
      </g>
      <path id="Caminho_560" data-name="Caminho 560" d="M-3397.065,3580.265v-9.821h9.821v9.821Z" transform="translate(252 -1)" fill="none" stroke="#f3f3f3" stroke-width="1"/>
      <g id="Retângulo_117" data-name="Retângulo 117" transform="translate(-3155 3540)" fill="none" stroke="#f3f3f3" stroke-width="1">
        <rect width="10" height="12" stroke="none"/>
        <rect x="0.5" y="0.5" width="9" height="11" fill="none"/>
      </g>
      <g id="Retângulo_118" data-name="Retângulo 118" transform="translate(-3146 3550)" fill="none" stroke="#f3f3f3" stroke-width="1">
        <rect width="11" height="11" stroke="none"/>
        <rect x="0.5" y="0.5" width="10" height="10" fill="none"/>
      </g>
      <g id="Retângulo_119" data-name="Retângulo 119" transform="translate(-3174 3550)" fill="none" stroke="#f3f3f3" stroke-width="1">
        <rect width="11" height="11" stroke="none"/>
        <rect x="0.5" y="0.5" width="10" height="10" fill="none"/>
      </g>
      <g id="Retângulo_120" data-name="Retângulo 120" transform="translate(-3184 3559)" fill="none" stroke="#f3f3f3" stroke-width="1">
        <rect width="11" height="11" stroke="none"/>
        <rect x="0.5" y="0.5" width="10" height="10" fill="none"/>
      </g>
      <g id="Retângulo_121" data-name="Retângulo 121" transform="translate(-3194 3569)" fill="none" stroke="#f3f3f3" stroke-width="1">
        <rect width="12" height="12" stroke="none"/>
        <rect x="0.5" y="0.5" width="11" height="11" fill="none"/>
      </g>
      <g id="Retângulo_122" data-name="Retângulo 122" transform="translate(-3126 3541)" fill="none" stroke="#f3f3f3" stroke-width="1">
        <rect width="10" height="29" rx="5" stroke="none"/>
        <rect x="0.5" y="0.5" width="9" height="28" rx="4.5" fill="none"/>
      </g>
      <g id="Retângulo_123" data-name="Retângulo 123" transform="translate(-3184 3607)" fill="none" stroke="#f3f3f3" stroke-width="1">
        <rect width="11" height="11" stroke="none"/>
        <rect x="0.5" y="0.5" width="10" height="10" fill="none"/>
      </g>
      <g id="Retângulo_124" data-name="Retângulo 124" transform="translate(-3213 3617)" fill="none" stroke="#f3f3f3" stroke-width="1">
        <rect width="11" height="11" stroke="none"/>
        <rect x="0.5" y="0.5" width="10" height="10" fill="none"/>
      </g>
      <g id="Retângulo_125" data-name="Retângulo 125" transform="translate(-3203 3626)" fill="none" stroke="#f3f3f3" stroke-width="1">
        <rect width="20" height="11" stroke="none"/>
        <rect x="0.5" y="0.5" width="19" height="10" fill="none"/>
      </g>
      <g id="Retângulo_126" data-name="Retângulo 126" transform="translate(-3184 3636)" fill="none" stroke="#f3f3f3" stroke-width="1">
        <rect width="30" height="11" stroke="none"/>
        <rect x="0.5" y="0.5" width="29" height="10" fill="none"/>
      </g>
      <g id="Retângulo_127" data-name="Retângulo 127" transform="translate(-3136 3655)" fill="none" stroke="#f3f3f3" stroke-width="1">
        <rect width="20" height="11" stroke="none"/>
        <rect x="0.5" y="0.5" width="19" height="10" fill="none"/>
      </g>
      <g id="Retângulo_128" data-name="Retângulo 128" transform="translate(-3146 3645)" fill="none" stroke="#f3f3f3" stroke-width="1">
        <rect width="11" height="11" stroke="none"/>
        <rect x="0.5" y="0.5" width="10" height="10" fill="none"/>
      </g>
      <g id="Retângulo_129" data-name="Retângulo 129" transform="translate(-3146 3626)" fill="none" stroke="#f3f3f3" stroke-width="1">
        <rect width="11" height="11" stroke="none"/>
        <rect x="0.5" y="0.5" width="10" height="10" fill="none"/>
      </g>
      <g id="Retângulo_130" data-name="Retângulo 130" transform="translate(-3136 3616)" fill="none" stroke="#f3f3f3" stroke-width="1">
        <rect width="11" height="11" stroke="none"/>
        <rect x="0.5" y="0.5" width="10" height="10" fill="none"/>
      </g>
      <g id="Retângulo_131" data-name="Retângulo 131" transform="translate(-3222 3569)" fill="none" stroke="#f3f3f3" stroke-width="1">
        <rect width="11" height="11" stroke="none"/>
        <rect x="0.5" y="0.5" width="10" height="10" fill="none"/>
      </g>
      <g id="Retângulo_132" data-name="Retângulo 132" transform="translate(-3222 3598)" fill="none" stroke="#f3f3f3" stroke-width="1">
        <rect width="11" height="11" stroke="none"/>
        <rect x="0.5" y="0.5" width="10" height="10" fill="none"/>
      </g>
      <g id="Retângulo_133" data-name="Retângulo 133" transform="translate(-3222 3588)" fill="none" stroke="#f3f3f3" stroke-width="1">
        <rect width="30" height="11" rx="5.5" stroke="none"/>
        <rect x="0.5" y="0.5" width="29" height="10" rx="5" fill="none"/>
      </g>
      <g id="Retângulo_134" data-name="Retângulo 134" transform="translate(-3174 3616)" fill="none" stroke="#f3f3f3" stroke-width="1">
        <rect width="11" height="12" stroke="none"/>
        <rect x="0.5" y="0.5" width="10" height="11" fill="none"/>
      </g>
      <g id="Retângulo_135" data-name="Retângulo 135" transform="translate(-3222 3655)" fill="none" stroke="#f3f3f3" stroke-width="1">
        <rect width="11" height="20" stroke="none"/>
        <rect x="0.5" y="0.5" width="10" height="19" fill="none"/>
      </g>
      <g id="Retângulo_136" data-name="Retângulo 136" transform="translate(-3222 3683)" fill="none" stroke="#f3f3f3" stroke-width="1">
        <rect width="11" height="11" stroke="none"/>
        <rect x="0.5" y="0.5" width="10" height="10" fill="none"/>
      </g>
      <g id="Retângulo_137" data-name="Retângulo 137" transform="translate(-3222 3693)" fill="none" stroke="#f3f3f3" stroke-width="1">
        <rect width="11" height="11" stroke="none"/>
        <rect x="0.5" y="0.5" width="10" height="10" fill="none"/>
      </g>
      <g id="Retângulo_138" data-name="Retângulo 138" transform="translate(-3203 3693)" fill="none" stroke="#f3f3f3" stroke-width="1">
        <rect width="11" height="11" stroke="none"/>
        <rect x="0.5" y="0.5" width="10" height="10" fill="none"/>
      </g>
      <g id="Retângulo_139" data-name="Retângulo 139" transform="translate(-3203 3703)" fill="none" stroke="#f3f3f3" stroke-width="1">
        <rect width="11" height="11" stroke="none"/>
        <rect x="0.5" y="0.5" width="10" height="10" fill="none"/>
      </g>
      <g id="Retângulo_140" data-name="Retângulo 140" transform="translate(-3184 3693)" fill="none" stroke="#f3f3f3" stroke-width="1">
        <rect width="11" height="11" stroke="none"/>
        <rect x="0.5" y="0.5" width="10" height="10" fill="none"/>
      </g>
      <g id="Elipse_7" data-name="Elipse 7" transform="translate(-3174 3684)" fill="none" stroke="#f3f3f3" stroke-width="1">
        <circle cx="5" cy="5" r="5" stroke="none"/>
        <circle cx="5" cy="5" r="4.5" fill="none"/>
      </g>
      <g id="Retângulo_141" data-name="Retângulo 141" transform="translate(-3203 3636)" fill="none" stroke="#f3f3f3" stroke-width="1">
        <rect width="11" height="30" rx="5" stroke="none"/>
        <rect x="0.5" y="0.5" width="10" height="29" rx="4.5" fill="none"/>
      </g>
      <g id="Retângulo_142" data-name="Retângulo 142" transform="translate(-3212 3722)" fill="none" stroke="#f3f3f3" stroke-width="1">
        <rect width="20" height="10" rx="5" stroke="none"/>
        <rect x="0.5" y="0.5" width="19" height="9" rx="4.5" fill="none"/>
      </g>
      <g id="Retângulo_143" data-name="Retângulo 143" transform="translate(-3193 3722)" fill="none" stroke="#f3f3f3" stroke-width="1">
        <rect width="10" height="10" stroke="none"/>
        <rect x="0.5" y="0.5" width="9" height="9" fill="none"/>
      </g>
      <g id="Retângulo_144" data-name="Retângulo 144" transform="translate(-3174 3722)" fill="none" stroke="#f3f3f3" stroke-width="1">
        <rect width="11" height="11" stroke="none"/>
        <rect x="0.5" y="0.5" width="10" height="10" fill="none"/>
      </g>
      <g id="Elipse_8" data-name="Elipse 8" transform="translate(-3165 3722)" fill="none" stroke="#f3f3f3" stroke-width="1">
        <circle cx="5.5" cy="5.5" r="5.5" stroke="none"/>
        <circle cx="5.5" cy="5.5" r="5" fill="none"/>
      </g>
      <g id="Retângulo_145" data-name="Retângulo 145" transform="translate(-3136 3712)" fill="none" stroke="#f3f3f3" stroke-width="1">
        <rect width="11" height="11" stroke="none"/>
        <rect x="0.5" y="0.5" width="10" height="10" fill="none"/>
      </g>
      <g id="Retângulo_146" data-name="Retângulo 146" transform="translate(-3136 3702)" fill="none" stroke="#f3f3f3" stroke-width="1">
        <rect width="11" height="11" stroke="none"/>
        <rect x="0.5" y="0.5" width="10" height="10" fill="none"/>
      </g>
      <g id="Retângulo_147" data-name="Retângulo 147" transform="translate(-3146 3683)" fill="none" stroke="#f3f3f3" stroke-width="1">
        <rect width="12" height="20" stroke="none"/>
        <rect x="0.5" y="0.5" width="11" height="19" fill="none"/>
      </g>
      <g id="Retângulo_148" data-name="Retângulo 148" transform="translate(-3175 3703)" fill="none" stroke="#f3f3f3" stroke-width="1">
        <rect width="31" height="11" rx="5.5" stroke="none"/>
        <rect x="0.5" y="0.5" width="30" height="10" rx="5" fill="none"/>
      </g>
      <g id="Retângulo_149" data-name="Retângulo 149" transform="translate(-3174 3674)" fill="none" stroke="#f3f3f3" stroke-width="1">
        <rect width="11" height="11" stroke="none"/>
        <rect x="0.5" y="0.5" width="10" height="10" fill="none"/>
      </g>
      <g id="Retângulo_150" data-name="Retângulo 150" transform="translate(-3165 3656)" fill="none" stroke="#f3f3f3" stroke-width="1">
        <rect width="11" height="18" rx="5.5" stroke="none"/>
        <rect x="0.5" y="0.5" width="10" height="17" rx="5" fill="none"/>
      </g>
      <g id="Retângulo_151" data-name="Retângulo 151" transform="translate(-3175 3646)" fill="none" stroke="#f3f3f3" stroke-width="1">
        <rect width="12" height="11" stroke="none"/>
        <rect x="0.5" y="0.5" width="11" height="10" fill="none"/>
      </g>
      <g id="Retângulo_152" data-name="Retângulo 152" transform="translate(-3212 3674)" fill="none" stroke="#f3f3f3" stroke-width="1">
        <rect width="20" height="10" stroke="none"/>
        <rect x="0.5" y="0.5" width="19" height="9" fill="none"/>
      </g>
      <g id="Elipse_9" data-name="Elipse 9" transform="translate(-3193 3674)" fill="none" stroke="#f3f3f3" stroke-width="1">
        <circle cx="5" cy="5" r="5" stroke="none"/>
        <circle cx="5" cy="5" r="4.5" fill="none"/>
      </g>
      <path id="Caminho_561" data-name="Caminho 561" d="M-3387.578,3647v-10.021h19.468v19.758h-10.364V3647Z" transform="translate(252 -1)" fill="none" stroke="#f3f3f3" stroke-width="1"/>
      <g id="Retângulo_153" data-name="Retângulo 153" transform="translate(-3108 3636)" fill="none" stroke="#f3f3f3" stroke-width="1">
        <rect width="11" height="11" stroke="none"/>
        <rect x="0.5" y="0.5" width="10" height="10" fill="none"/>
      </g>
      <g id="Retângulo_154" data-name="Retângulo 154" transform="translate(-3108 3626)" fill="none" stroke="#f3f3f3" stroke-width="1">
        <rect width="11" height="11" stroke="none"/>
        <rect x="0.5" y="0.5" width="10" height="10" fill="none"/>
      </g>
      <path id="Caminho_562" data-name="Caminho 562" d="M-3377.844,3619.051v-10.325h9.481v-10.073h9.569v20.4h-19.051" transform="translate(252 -1)" fill="none" stroke="#f3f3f3" stroke-width="1"/>
      <g id="Retângulo_155" data-name="Retângulo 155" transform="translate(-3155 3598)" fill="none" stroke="#f3f3f3" stroke-width="1">
        <rect width="10" height="10" stroke="none"/>
        <rect x="0.5" y="0.5" width="9" height="9" fill="none"/>
      </g>
      <g id="Retângulo_156" data-name="Retângulo 156" transform="translate(-3174 3579)" fill="none" stroke="#f3f3f3" stroke-width="1">
        <rect width="11" height="20" rx="5.5" stroke="none"/>
        <rect x="0.5" y="0.5" width="10" height="19" rx="5" fill="none"/>
      </g>
      <g id="Retângulo_157" data-name="Retângulo 157" transform="translate(-3153.5 3588.5) rotate(90)" fill="none" stroke="#f3f3f3" stroke-width="1">
        <rect width="11" height="20" rx="5.5" stroke="none"/>
        <rect x="0.5" y="0.5" width="10" height="19" rx="5" fill="none"/>
      </g>
      <g id="Retângulo_158" data-name="Retângulo 158" transform="translate(-3222 3550)" fill="none" stroke="#f3f3f3" stroke-width="1">
        <rect width="11" height="11" stroke="none"/>
        <rect x="0.5" y="0.5" width="10" height="10" fill="none"/>
      </g>
      <path id="Caminho_563" data-name="Caminho 563" d="M-3444.63,3562.018v-19.855h-19.177v10.364h9.589v9.492h9.589" transform="translate(252 -1)" fill="none" stroke="#f3f3f3" stroke-width="1"/>
      <g id="Retângulo_159" data-name="Retângulo 159" transform="translate(-3194 3531)" fill="none" stroke="#f3f3f3" stroke-width="1">
        <rect width="11" height="11" stroke="none"/>
        <rect x="0.5" y="0.5" width="10" height="10" fill="none"/>
      </g>
      <g id="Retângulo_160" data-name="Retângulo 160" transform="translate(-3174 3531)" fill="none" stroke="#f3f3f3" stroke-width="1">
        <rect width="10" height="11" stroke="none"/>
        <rect x="0.5" y="0.5" width="9" height="10" fill="none"/>
      </g>
      <g id="Retângulo_161" data-name="Retângulo 161" transform="translate(-3184 3541)" fill="none" stroke="#f3f3f3" stroke-width="1">
        <rect width="21" height="10" rx="5" stroke="none"/>
        <rect x="0.5" y="0.5" width="20" height="9" rx="4.5" fill="none"/>
      </g>
      <g id="Retângulo_162" data-name="Retângulo 162" transform="translate(-3136 3531)" fill="none" stroke="#f3f3f3" stroke-width="1">
        <rect width="11" height="11" stroke="none"/>
        <rect x="0.5" y="0.5" width="10" height="10" fill="none"/>
      </g>
      <g id="Retângulo_163" data-name="Retângulo 163" transform="translate(-3117 3531)" fill="none" stroke="#f3f3f3" stroke-width="1">
        <rect width="11" height="11" stroke="none"/>
        <rect x="0.5" y="0.5" width="10" height="10" fill="none"/>
      </g>
      <g id="Retângulo_164" data-name="Retângulo 164" transform="translate(-3136 3674)" fill="none" stroke="#f3f3f3" stroke-width="1">
        <rect width="10" height="11" stroke="none"/>
        <rect x="0.5" y="0.5" width="9" height="10" fill="none"/>
      </g>
      <g id="Retângulo_165" data-name="Retângulo 165" transform="translate(-3118 3674)" fill="none" stroke="#f3f3f3" stroke-width="1">
        <rect width="11" height="11" stroke="none"/>
        <rect x="0.5" y="0.5" width="10" height="10" fill="none"/>
      </g>
      <g id="Elipse_10" data-name="Elipse 10" transform="translate(-3126 3683)" fill="none" stroke="#f3f3f3" stroke-width="1">
        <circle cx="5.5" cy="5.5" r="5.5" stroke="none"/>
        <circle cx="5.5" cy="5.5" r="5" fill="none"/>
      </g>
      <g id="Retângulo_166" data-name="Retângulo 166" transform="translate(-3222 3636)" fill="none" stroke="#f3f3f3" stroke-width="1">
        <rect width="11" height="11" stroke="none"/>
        <rect x="0.5" y="0.5" width="10" height="10" fill="none"/>
      </g>
      <g id="Elipse_11" data-name="Elipse 11" transform="translate(-3212 3703)" fill="none" stroke="#f3f3f3" stroke-width="1">
        <circle cx="5.5" cy="5.5" r="5.5" stroke="none"/>
        <circle cx="5.5" cy="5.5" r="5" fill="none"/>
      </g>
      <g id="Retângulo_167" data-name="Retângulo 167" transform="translate(-3117 3712)" fill="none" stroke="#f3f3f3" stroke-width="1">
        <rect width="22" height="11" stroke="none"/>
        <rect x="0.5" y="0.5" width="21" height="10" fill="none"/>
      </g>
      <g id="Retângulo_168" data-name="Retângulo 168" transform="translate(-3117 3569)" fill="none" stroke="#f3f3f3" stroke-width="1">
        <rect width="20" height="11" stroke="none"/>
        <rect x="0.5" y="0.5" width="19" height="10" fill="none"/>
      </g>
      <g id="Retângulo_169" data-name="Retângulo 169" transform="translate(-3108 3559)" fill="none" stroke="#f3f3f3" stroke-width="1">
        <rect width="11" height="11" stroke="none"/>
        <rect x="0.5" y="0.5" width="10" height="10" fill="none"/>
      </g>
      <g id="Elipse_12" data-name="Elipse 12" transform="translate(-3107 3588)" fill="none" stroke="#f3f3f3" stroke-width="1">
        <circle cx="6" cy="6" r="6" stroke="none"/>
        <circle cx="6" cy="6" r="5.5" fill="none"/>
      </g>
      <g id="Retângulo_170" data-name="Retângulo 170" transform="translate(-3108 3722)" fill="none" stroke="#f3f3f3" stroke-width="1">
        <rect width="13" height="10" stroke="none"/>
        <rect x="0.5" y="0.5" width="12" height="9" fill="none"/>
      </g>
    </g>
  </g>
</svg>
