<svg id="torneio" xmlns="http://www.w3.org/2000/svg" width="780.88" height="764.052" viewBox="0 0 780.88 764.052">
  <circle id="Elipse_31" data-name="Elipse 31" cx="113.44" cy="113.44" r="113.44" transform="translate(0 260.531)" fill="#f2f2f2"/>
  <circle id="Elipse_32" data-name="Elipse 32" cx="45.236" cy="45.236" r="45.236" transform="translate(69.218 288.228)" fill="#2f2e41"/>
  <path id="Caminho_737" data-name="Caminho 737" d="M439.335,181.616a113.147,113.147,0,1,1-33-80.359,113.44,113.44,0,0,1,33,80.359Z" transform="translate(-211.84 -67.975)" fill="#f2f2f2"/>
  <circle id="Elipse_33" data-name="Elipse 33" cx="113.44" cy="113.44" r="113.44" transform="translate(269.19 260.531)" fill="#f2f2f2"/>
  <circle id="Elipse_34" data-name="Elipse 34" cx="113.44" cy="113.44" r="113.44" transform="translate(268.86 0)" fill="#f2f2f2"/>
  <circle id="Elipse_35" data-name="Elipse 35" cx="113.44" cy="113.44" r="113.44" transform="translate(545.34 0)" fill="#f2f2f2"/>
  <circle id="Elipse_36" data-name="Elipse 36" cx="113.44" cy="113.44" r="113.44" transform="translate(549.44 260.531)" fill="#f2f2f2"/>
  <path id="Caminho_738" data-name="Caminho 738" d="M439.335,718.585a112.938,112.938,0,1,1-33.078-80.362,113.44,113.44,0,0,1,33.078,80.362Z" transform="translate(-211.84 -67.975)" fill="#f2f2f2"/>
  <circle id="Elipse_37" data-name="Elipse 37" cx="113.44" cy="113.44" r="113.44" transform="translate(276.15 537.171)" fill="#f2f2f2"/>
  <path id="Caminho_739" data-name="Caminho 739" d="M273.316,144.513c4.691-14.949,15.358-28.66,30.109-33.713s36.355,2.645,47.445,13.7c20.287,20.219,25.238,89.677,11.3,111.627-2.772-.147-12.339-.255-15.145-.36l-3.969-13.23v13.1q-6.705-.207-13.516-.286a58.821,58.821,0,0,1-58.074-57.37C271.1,163.418,271.468,150.4,273.316,144.513Z" transform="translate(-211.84 -67.975)" fill="#2f2e41"/>
  <circle id="Elipse_38" data-name="Elipse 38" cx="32.33" cy="32.33" r="32.33" transform="translate(80.042 61.424)" fill="#9e616a"/>
  <path id="Caminho_740" data-name="Caminho 740" d="M296.311,133.335,333.535,114.7h0a46.787,46.787,0,0,1,27.4,38.764l.928,11.114-15.588-3.968-1.708-14.211-2.647,13.1-7.194-1.83L334.8,135.6l-7.2,22.047-25.693-5.9Z" transform="translate(-211.84 -67.975)" fill="#2f2e41"/>
  <circle id="Elipse_39" data-name="Elipse 39" cx="16.016" cy="16.016" r="16.016" transform="translate(335.463 299.372)" fill="#2f2e41"/>
  <circle id="Elipse_40" data-name="Elipse 40" cx="40.573" cy="40.573" r="40.573" transform="translate(336.531 311.118)" fill="#2f2e41"/>
  <circle id="Elipse_41" data-name="Elipse 41" cx="32.971" cy="32.971" r="32.971" transform="translate(347.491 326.314)" fill="#9e616a"/>
  <path id="Caminho_741" data-name="Caminho 741" d="M614.692,393.65a37.767,37.767,0,0,0-57.419,32.96c16.8,4.218,34.45,7.446,52.366,1.009l4.231-10.355,2.494,10.363c5.456,2.23,10.926,4.117,16.4-.022a38.562,38.562,0,0,0-18.069-33.955Z" transform="translate(-211.84 -67.975)" fill="#2f2e41"/>
  <path id="Caminho_742" data-name="Caminho 742" d="M548.407,339.886c-11.075-5.078-24.971-2.7-34.192,5.267s-13.606,20.922-11.825,32.974c1.816,12.3,9.291,22.884,16.181,33.228s13.622,21.68,13.614,34.108a33.811,33.811,0,0,1-33.744,33.79c10.507,4.523,21.473,9.135,32.9,8.6s23.4-7.882,25.267-19.168c1.343-8.132-2.647-16.062-5.974-23.6a166.953,166.953,0,0,1-11.668-38.409c-1.111-6.312-1.835-12.948.223-19.019A22.333,22.333,0,0,1,561.373,373l3.775-3.4C566.828,357.536,559.482,344.964,548.407,339.886Z" transform="translate(-211.84 -67.975)" fill="#2f2e41"/>
  <path id="Caminho_743" data-name="Caminho 743" d="M824.323,137.043a106.586,106.586,0,0,1-7.6,24.271c-20.011,42.333,36.976,28.535,57.342,28.535,22.267,0,43.571,11.709,40.317-40.317-1.39-22.223-18.051-40.317-40.317-40.317C855.041,109.215,828.3,117.668,824.323,137.043Z" transform="translate(-211.84 -67.975)" fill="#2f2e41"/>
  <circle id="Elipse_42" data-name="Elipse 42" cx="32.762" cy="32.762" r="32.762" transform="translate(626.122 56.34)" fill="#ffb6b6"/>
  <path id="Caminho_744" data-name="Caminho 744" d="M848.475,123.68a37.528,37.528,0,0,1,57.056,32.752c-16.694,4.191-34.232,7.4-52.035,1l-4.2-10.29-2.479,10.3c-5.422,2.216-10.857,4.091-16.293-.021A38.318,38.318,0,0,1,848.475,123.68Z" transform="translate(-211.84 -67.975)" fill="#2f2e41"/>
  <circle id="Elipse_43" data-name="Elipse 43" cx="40.411" cy="40.411" r="40.411" transform="translate(74.061 303.819)" fill="#ffb8b8"/>
  <circle id="ab6171fa-7d69-4734-b81c-8dff60f9761b" cx="34.415" cy="34.415" r="34.415" transform="translate(352.678 593.548)" fill="#9e616a"/>
  <circle id="Elipse_44" data-name="Elipse 44" cx="36.991" cy="36.991" r="36.991" transform="translate(349.933 51.03)" fill="#ffb8b8"/>
  <path id="bf427902-b9bf-4946-b5d7-5c1c7e04535e" d="M631.333,131.559s9.631-18.412-11.558-20.086c0,0-18.064-16.386-36.475-3,0,0-10.043,0-15.534,11.365,0,0-7.9-3-9.634,5.021,0,0-5.78,16.738,0,31.8s7.7,16.738,7.7,16.738-4.055-18.694,19.062-20.368,44.325-16.156,46.251,2.256,4.044,10.094,4.044,10.094S653.485,139.091,631.333,131.559Z" transform="translate(-211.84 -67.975)" fill="#2f2e41"/>
  <circle id="Elipse_45" data-name="Elipse 45" cx="36.211" cy="36.211" r="36.211" transform="translate(623.538 315.601)" fill="#ffb6b6"/>
  <path id="Caminho_745" data-name="Caminho 745" d="M372.289,691.442h0l-.561,1.012c5-12.313.453-27.485-8.459-36.769s-21.3-13.529-33.5-15.213c-9.057-1.25-18.457-1.214-27.069,2.1-12.47,4.8-22,15.925-29.953,27.494-3.639,5.292-7.216,11.324-6.854,17.938.337,6.138,3.98,11.346,6.963,16.553s5.475,11.668,3.334,17.351c-1.276,3.387-3.973,5.826-6.161,8.6s-3.988,6.515-2.931,9.991a8.152,8.152,0,0,0,6.073,5.278c2.645.617,5.39.214,8.069-.191l69.54-10.506a29.637,29.637,0,0,0,21.512-43.638Z" transform="translate(-211.84 -67.975)" fill="#2f2e41"/>
  <circle id="Elipse_46" data-name="Elipse 46" cx="33.999" cy="33.999" r="33.999" transform="translate(69.719 660.733) rotate(-80.783)" fill="#ffb9b9"/>
  <path id="Caminho_746" data-name="Caminho 746" d="M411.075,793.485a113.4,113.4,0,0,1-158.71,11.47l9.73-27.15a29.2,29.2,0,0,1,24.8-17.03l6.19-.38,14.76-12.73s39.77-1.42,39.18-2.1l24.09,14.49-.02-.1,9.47.58a29.184,29.184,0,0,1,24.8,17.03Z" transform="translate(-211.84 -67.975)" fill="#7b1daa"/>
  <path id="Caminho_747" data-name="Caminho 747" d="M685.075,793.485a113.4,113.4,0,0,1-158.71,11.47l9.73-27.15a29.2,29.2,0,0,1,24.8-17.03l6.19-.38,14.76-12.73s39.77-1.42,39.18-2.1l24.09,14.49-.02-.1,9.47.58a29.184,29.184,0,0,1,24.8,17.03Z" transform="translate(-211.84 -67.975)" fill="#7b1daa"/>
  <path id="Caminho_748" data-name="Caminho 748" d="M352.814,669.041c-.878-4.643-5.613-6.766-9.67-7.8a93.152,93.152,0,0,0-36.036-1.979c-8.767,1.25-17.742,4.007-24.1,10.85a32.416,32.416,0,0,0-8.2,20.877,24.861,24.861,0,0,0,2.976,13.263c2.289,3.875,6.191,6.685,10.219,6.586l.408,1.419c17.07-2.378,32.926-13,42.913-28.744a36.825,36.825,0,0,1-10.759,17.38A67.035,67.035,0,0,0,349.5,678.6C351.521,675.916,353.481,672.573,352.814,669.041Z" transform="translate(-211.84 -67.975)" fill="#2f2e41"/>
  <path id="Caminho_749" data-name="Caminho 749" d="M410.075,516.485a113.4,113.4,0,0,1-158.71,11.47l9.73-27.15a29.2,29.2,0,0,1,24.8-17.03l6.19-.38,14.76-12.73s39.77-1.42,39.18-2.1l24.09,14.49-.02-.1,9.47.58a29.184,29.184,0,0,1,24.8,17.03Z" transform="translate(-211.84 -67.975)" fill="#7b1daa"/>
  <path id="Caminho_750" data-name="Caminho 750" d="M679.825,517.845a113.4,113.4,0,0,1-158.71,11.47l9.73-27.15a29.2,29.2,0,0,1,24.8-17.03l6.19-.38,14.76-12.73s39.77-1.42,39.18-2.1l24.09,14.49-.02-.1,9.47.58a29.184,29.184,0,0,1,24.8,17.03Z" transform="translate(-211.84 -67.975)" fill="#7b1daa"/>
  <path id="Caminho_751" data-name="Caminho 751" d="M959.825,517.845a113.4,113.4,0,0,1-158.71,11.47l9.73-27.15a29.2,29.2,0,0,1,24.8-17.03l6.19-.38,14.76-12.73s39.77-1.42,39.18-2.1l24.09,14.49-.02-.1,9.47.58a29.184,29.184,0,0,1,24.8,17.03Z" transform="translate(-211.84 -67.975)" fill="#7b1daa"/>
  <path id="Caminho_752" data-name="Caminho 752" d="M410.075,256.485a113.4,113.4,0,0,1-158.71,11.47l9.73-27.15a29.2,29.2,0,0,1,24.8-17.03l6.19-.38,14.76-12.73s39.77-1.42,39.18-2.1l24.09,14.49-.02-.1,9.47.58a29.184,29.184,0,0,1,24.8,17.03Z" transform="translate(-211.84 -67.975)" fill="#7b1daa"/>
  <path id="Caminho_753" data-name="Caminho 753" d="M678.825,256.845a113.4,113.4,0,0,1-158.71,11.47l9.73-27.15a29.2,29.2,0,0,1,24.8-17.03l6.19-.38,14.76-12.73s39.77-1.42,39.18-2.1l24.09,14.49-.02-.1,9.47.58a29.184,29.184,0,0,1,24.8,17.03Z" transform="translate(-211.84 -67.975)" fill="#7b1daa"/>
  <path id="Caminho_754" data-name="Caminho 754" d="M958.825,256.845a113.4,113.4,0,0,1-158.71,11.47l9.73-27.15a29.2,29.2,0,0,1,24.8-17.03l6.19-.38,14.76-12.73s39.77-1.42,39.18-2.1l24.09,14.49-.02-.1,9.47.58a29.184,29.184,0,0,1,24.8,17.03Z" transform="translate(-211.84 -67.975)" fill="#7b1daa"/>
  <path id="Caminho_755" data-name="Caminho 755" d="M909.78,397.329a46.686,46.686,0,0,0-19.552-26.6c-7.6-4.863-17.089-7.345-25.7-4.773s-15.743,11.024-15.18,20.156c-3.109-1.058-6.643.35-8.919,2.754s-3.5,5.64-4.376,8.86a56.325,56.325,0,0,0,.528,31.19l-.171,1.455c4.2-.7,7.389-4.3,9.371-8.142s3.122-8.1,5.271-11.85,5.715-7.09,9.97-7.207l-.375,6.5,10.983-5.659-2.612,6.249,9.592-4.009-1.072,6.009c3.171-7.217,12.977-10.388,19.648-6.353,3.874,2.344,6.416,6.52,7.753,10.906s1.6,9.026,1.857,13.612A47.6,47.6,0,0,0,909.78,397.329Z" transform="translate(-211.84 -67.975)" fill="#2f2e41"/>
  <path id="Caminho_756" data-name="Caminho 756" d="M567.663,711.848c-.068-.188-.129-.379-.2-.567-.133.117-.259.237-.4.346Z" transform="translate(-211.84 -67.975)" fill="#2f2e41"/>
  <path id="Caminho_757" data-name="Caminho 757" d="M640.158,683.694a24.742,24.742,0,0,0-9.239-18.059c-2.006-1.586-4.326-2.926-5.654-5.111a34.971,34.971,0,0,1-1.921-4.79c-2.642-6.288-10.171-9.63-16.925-8.678s-12.6,5.5-16.536,11.065a11.255,11.255,0,0,0-15.74,13.046c-3.5-2.818-9.155-.564-11.338,3.361s-1.837,8.728-1.188,13.172a124.463,124.463,0,0,0,5.849,23.58c3.406-3,3.2-8.46,2.78-13.077-.432-4.8-.173-10.652,4.021-13.019,4.052-2.287,8.97.224,13.438,1.522a25.4,25.4,0,0,0,21.008-3.3c2.327-1.575,4.4-3.547,6.908-4.813s5.7-1.705,8.037-.143c2.133,1.427,3,4.087,3.726,6.549l5.161,17.5a24.742,24.742,0,0,0,7.612-18.8Z" transform="translate(-211.84 -67.975)" fill="#2f2e41"/>
  <path id="Caminho_758" data-name="Caminho 758" d="M368.947,398.033a89.422,89.422,0,0,0,.389-9.077,42.725,42.725,0,0,0-3.223-17.495,26.883,26.883,0,0,0-14.066-13.589,25.665,25.665,0,0,0-19.243.017c-5.57-3.519-11.759-6.309-18.276-6.655s-13.409,2.072-17.425,7.4a28.44,28.44,0,0,1-3.044,3.955c-3.229,2.99-8.135,2.559-12.426,1.947l5.776,4.949-6.99,1.826,8.157,4.947c-7.893,4.738-11.481,15.078-10.533,24.47.9,8.892,5.189,17.022,10.321,24.249,2.047-4.32,1.606-9.489,1.572-14.354a32.492,32.492,0,0,1,.288-4.72c17.343,4.157,35.464,6.825,53.84.223l3.688-9.026c.518.053,1.035.1,1.553.158l2.137,8.876c4.844,1.98,9.7,3.71,14.554,1.892.236,1.371.379,2.77.488,4.115.417-1.609.778-3.229,1.1-4.856a14.361,14.361,0,0,0,1.839-1.174,39.511,39.511,0,0,0-.478-8.074Z" transform="translate(-211.84 -67.975)" fill="#2f2e41"/>
  <circle id="Elipse_47" data-name="Elipse 47" cx="113.44" cy="113.44" r="113.44" transform="translate(554 530.531)" fill="#f2f2f2"/>
  <circle id="Elipse_48" data-name="Elipse 48" cx="40.411" cy="40.411" r="40.411" transform="translate(628.061 573.819)" fill="#ffb8b8"/>
  <path id="Caminho_759" data-name="Caminho 759" d="M410.075,516.485a113.4,113.4,0,0,1-158.71,11.47l9.73-27.15a29.2,29.2,0,0,1,24.8-17.03l6.19-.38,14.76-12.73s39.77-1.42,39.18-2.1l24.09,14.49-.02-.1,9.47.58a29.184,29.184,0,0,1,24.8,17.03Z" transform="translate(342.16 202.025)" fill="#7b1daa"/>
  <path id="Caminho_760" data-name="Caminho 760" d="M368.947,398.033a89.422,89.422,0,0,0,.389-9.077,42.725,42.725,0,0,0-3.223-17.495,26.883,26.883,0,0,0-14.066-13.589,25.665,25.665,0,0,0-19.243.017c-5.57-3.519-11.759-6.309-18.276-6.655s-13.409,2.072-17.425,7.4a28.44,28.44,0,0,1-3.044,3.955c-3.229,2.99-8.135,2.559-12.426,1.947l5.776,4.949-6.99,1.826,8.157,4.947c-7.893,4.738-11.481,15.078-10.533,24.47.9,8.892,5.189,17.022,10.321,24.249,2.047-4.32,1.606-9.489,1.572-14.354a32.492,32.492,0,0,1,.288-4.72c17.343,4.157,35.464,6.825,53.84.223l3.688-9.026c.518.053,1.035.1,1.553.158l2.137,8.876c4.844,1.98,9.7,3.71,14.554,1.892.236,1.371.379,2.77.488,4.115.417-1.609.778-3.229,1.1-4.856a14.361,14.361,0,0,0,1.839-1.174,39.511,39.511,0,0,0-.478-8.074Z" transform="translate(342.16 202.025)" fill="#2f2e41"/>
</svg>
