<svg xmlns="http://www.w3.org/2000/svg" width="358.238" height="358.404" viewBox="0 0 358.238 358.404">
  <path id="Caminho_11" data-name="Caminho 11" d="M417.2,100.8a22.4,22.4,0,0,0-15.848,6.551l-190.4,190.4v0a22.373,22.373,0,0,0-5.6,9.965l-33.6,123.2,0,0a22.393,22.393,0,0,0,27.492,27.492l123.2-33.6,0,0a22.372,22.372,0,0,0,9.965-5.6l190.4-190.4h0A22.4,22.4,0,0,0,529.2,212.8a112,112,0,0,0-112-112ZM256.54,396.31a44.776,44.776,0,0,0-22.848-22.848l13.1-47.992A67.2,67.2,0,0,1,304.59,383.2Zm84-49a112.611,112.611,0,0,0-57.734-57.961l143.14-143.19a67.2,67.2,0,0,1,57.9,57.9Z" transform="translate(-170.964 -100.8)" fill="#fff"/>
</svg>
