<svg xmlns="http://www.w3.org/2000/svg" xmlns:xlink="http://www.w3.org/1999/xlink" width="500" height="500" viewBox="0 0 500 500">
  <defs>
    <clipPath id="clip-path">
      <rect width="500" height="500" fill="none"/>
    </clipPath>
  </defs>
  <g id="Repetição_de_grade_8" data-name="Repetição de grade 8" clip-path="url(#clip-path)">
    <g transform="translate(1862 -8291)">
      <rect id="Retângulo_193" data-name="Retângulo 193" width="500" height="500" transform="translate(-1862 8291)" fill="#343304"/>
      <g id="noun-plato-2172501" transform="translate(-694.422 7982.944)">
        <path id="Caminho_1287" data-name="Caminho 1287" d="M314.448,150.415a20.3,20.3,0,0,0-8.308,1.855,17.707,17.707,0,0,0,10.754,3.495,25.561,25.561,0,0,0,9.033-1.829,21.859,21.859,0,0,0-11.479-3.521Zm0,0a20.3,20.3,0,0,0-8.308,1.855,17.707,17.707,0,0,0,10.754,3.495,25.561,25.561,0,0,0,9.033-1.829,21.859,21.859,0,0,0-11.479-3.521Zm-77.317,0h0a21.858,21.858,0,0,0-11.426,3.521,25.614,25.614,0,0,0,9.061,1.829,17.749,17.749,0,0,0,10.754-3.495,20.292,20.292,0,0,0-8.389-1.855Zm77.317,0a20.3,20.3,0,0,0-8.308,1.855,17.707,17.707,0,0,0,10.754,3.495,25.561,25.561,0,0,0,9.033-1.829,21.859,21.859,0,0,0-11.479-3.521Zm-77.317,0h0a21.858,21.858,0,0,0-11.426,3.521,25.614,25.614,0,0,0,9.061,1.829,17.749,17.749,0,0,0,10.754-3.495,20.292,20.292,0,0,0-8.389-1.855Zm77.317,0a20.3,20.3,0,0,0-8.308,1.855,17.707,17.707,0,0,0,10.754,3.495,25.561,25.561,0,0,0,9.033-1.829,21.859,21.859,0,0,0-11.479-3.521Zm77.968-13.147a19.123,19.123,0,0,0-12.072-9.76c11.479-14.786,12.823-32.422,12.124-43.848a4.04,4.04,0,0,0,0-.482v-.566a74.737,74.737,0,0,0-.994-8.065C384.859,38.359,354.8,12.818,306.839,2.71A155.815,155.815,0,0,0,270.679.237c-48.661,3.305-82.1,18.6-99.206,45.487-20.324,32.261-11.292,70.57-6.613,84.9a16.523,16.523,0,0,0-5.727,6.64c-4.57,9.76,1.371,21.829,6.157,31.563,3.173,6.4,3.682,14.006,6.505,20.649v0a17.667,17.667,0,0,0,5.377,6.855,40.885,40.885,0,0,0,1.56,16.832c-.538,5.216-1.748,23.767,6.318,33.042v0a37.165,37.165,0,0,1,4.7,7.583,54.69,54.69,0,0,1,.7,8.9,2.891,2.891,0,0,0,0,.456,24.563,24.563,0,0,0,5.835,12.367,17.7,17.7,0,0,1,4.436,10.216,23.168,23.168,0,0,0,8.738,16.131,16.573,16.573,0,0,1,5.377,8.065,39.757,39.757,0,0,0,3.361,8.953c3.039,4.354,7.42,9.973,12.878,11.4h0a105.1,105.1,0,0,1,15.325,8.495l.538.3c13.442,6.318,31.078,6,45.487,3.577h0a45.721,45.721,0,0,0,11.99-3.577l.538-.3a105.26,105.26,0,0,1,15.406-8.282c5.377-1.4,9.866-7.043,12.878-11.4l0,0a5.027,5.027,0,0,0,.754-1.587c1.452-5.134,4.866-13.442,8.065-15.619a23.016,23.016,0,0,0,8.6-15.943c.7-8.738,9.383-13.819,10.3-22.691a3.231,3.231,0,0,0,0-.482,42.31,42.31,0,0,1,.7-8.632c.43-1.99,1.21-5.538,3.2-6.64a5.388,5.388,0,0,0,2.688-3.521c.161-.619,3.548-15.809,4.623-22.691a67.513,67.513,0,0,0,.43-23.471,18.81,18.81,0,0,0,7.314-8.226,32.7,32.7,0,0,0,1.935-8.065,31.228,31.228,0,0,1,.967-4.784,84.9,84.9,0,0,1,3.6-7.9c4.652-9.734,10.593-21.8,6.023-31.563ZM357.707,36.907c-1.505,2.688-10.485,16.911-31.16,14.868h0a60.38,60.38,0,0,0,12.367-27.046,92.59,92.59,0,0,1,18.79,12.177ZM285.822,10.992a130.153,130.153,0,0,1,18.819,2.151c2.5.538,5.082,1.157,7.662,1.829-3.55,7.122-12.314,20.62-29.9,23.952a51.719,51.719,0,0,0,3.416-27.931Zm-20.783.509c2.124-.187,4.275-.4,6.479-.538a28.347,28.347,0,0,0,3.308-.134c1.183,6.505,4.114,32.422-22.314,40.461a5.4,5.4,0,0,0,1.531,10.567,5.311,5.311,0,0,0,1.587-.242,44.013,44.013,0,0,0,19.035-11.157A52.935,52.935,0,0,0,303.547,41.5,52.935,52.935,0,0,0,322.815,18.2q2.9.969,5.807,2.1c-1.075,7.311-6.855,34.815-34.009,36.186a5.379,5.379,0,1,0,.269,10.754h.269a43.186,43.186,0,0,0,20.97-6.452,57.13,57.13,0,0,0,14.249,1.935,41.848,41.848,0,0,0,35.137-17.984,64.74,64.74,0,0,1,5.19,6.64c-1.183,3.872-5.026,14.465-13.2,18.98a20.537,20.537,0,0,1-17.367.564,6.761,6.761,0,0,0-8.173,5.3c0,1.935-.161,3.79,0,5.619-35.219-14.465-72.942-15-112.35-1.639v0a70.024,70.024,0,0,0,.78-10.269,6.258,6.258,0,0,0,0-1.236,22.807,22.807,0,0,0-.269-3.065A34.718,34.718,0,0,0,233.4,50.782c25.54-5.055,31.642-25.864,31.642-39.28Zm-10.3,180.124a11.711,11.711,0,0,0,3.685,0,15.768,15.768,0,0,1,11.344,1.721l.43.35a13.6,13.6,0,0,0,13.442,1.1,21.506,21.506,0,0,1,12.53-3.145,1.62,1.62,0,0,0,1.344-.511,9.929,9.929,0,0,0-1.56-2.177,5.411,5.411,0,1,1,8.416-6.8c1.829,2.232,5.672,6.855,3.253,12.9a12.149,12.149,0,0,1-12.259,7.285,10.5,10.5,0,0,0-5.943,1.56,5.392,5.392,0,0,1-.859.482,25.457,25.457,0,0,1-10.754,2.475,24.382,24.382,0,0,1-14.33-4.7,11.676,11.676,0,0,0-3.79,0c-3.361.43-8.495,1.049-12.528-2.688a10.76,10.76,0,0,1-4.006-7.662,11.537,11.537,0,0,1,4.275-8.255c.511-.511,1.049-1.075,1.56-1.666a5.408,5.408,0,0,1,8.387,6.829c-.7.833-1.426,1.587-2.124,2.312l-.619.646Zm2.043-54.441c-21-12.986-45.487,3.925-45.7,4.085l0,0a5.529,5.529,0,0,1-3.147.994,5.376,5.376,0,0,1-3.171-9.758c1.128-.754,27.636-19.036,53.472-6.669l2.446-2.984h0a5.411,5.411,0,0,1,8.44,6.774l-5.377,6.452a5.534,5.534,0,0,1-7.043,1.183ZM293,153.878l0,0a5.379,5.379,0,0,1,1.4-7.153,33.843,33.843,0,0,1,20.137-7.151c15.029,0,24.921,11.453,25.324,11.937h0a5.322,5.322,0,0,1-1.291,8.013,41.67,41.67,0,0,1-21.508,6.908,29.166,29.166,0,0,1-24.143-12.475Zm47.694-12.61c-.3-.216-24.868-16.99-45.7-4.085h0A5.539,5.539,0,0,1,287.865,136l-5.377-6.452a5.413,5.413,0,1,1,8.442-6.776l2.446,2.984c25.809-12.285,52.317,6,53.553,6.829a5.378,5.378,0,0,1-3.171,9.76,5.508,5.508,0,0,1-3.147-1ZM254.07,12.788c0,7.233-2.528,21.508-19.114,26.563A36.376,36.376,0,0,0,224.9,19.536a162.912,162.912,0,0,1,29.17-6.747ZM213.96,23.863c3.065,2.688,10.754,10.377,10.3,18.469-.161,4.194-2.688,8.065-7.125,11.99v0a27.683,27.683,0,0,0-9.491-12.259,29.569,29.569,0,0,0-14.275-5.108A85.128,85.128,0,0,1,213.96,23.863ZM180.731,51.449c.725-1.157,1.531-2.232,2.312-3.334,2.849-.59,11.747-1.908,18.229,2.688,4.974,3.521,7.744,10.108,8.065,19.544a51.118,51.118,0,0,1-3.416,17.878A19.6,19.6,0,0,1,190.3,84.973C179.547,77.1,177.773,58.948,177.747,58.6a6.224,6.224,0,0,0-.35-1.426c1.1-1.935,2.151-3.843,3.334-5.725Zm0,128.425a35.932,35.932,0,0,0-1.426-6.587,87.176,87.176,0,0,0-4.22-9.275c-3.577-7.259-8.468-17.233-6.075-22.34a9.948,9.948,0,0,1,7.043-4.491,24.031,24.031,0,0,1,4.57-.053Zm12.554-76.242a5.377,5.377,0,0,0-3.226,5.672c1.882,13.442-5.082,16.856-5.78,17.124a34.281,34.281,0,0,0-9.006,0c-2.9-9.544-7.636-29.573-3.764-50.49v0a40.332,40.332,0,0,0,12.557,17.42,28.744,28.744,0,0,0,15.19,5.7,22.13,22.13,0,0,1-6.078,4.57Zm17.233,127.325a5.377,5.377,0,0,1-10.754,0V220.2a5.377,5.377,0,0,1,10.754,0Zm2.688-71.35a5.183,5.183,0,0,1-1.4-7.957c.4-.485,10.3-11.937,25.324-11.937a33.839,33.839,0,0,1,20.137,7.151,5.379,5.379,0,0,1,1.4,7.153,29.176,29.176,0,0,1-23.9,12.554,41.747,41.747,0,0,1-21.669-6.964Zm7.5,95.525a5.377,5.377,0,0,1-5.377-5.377,44.85,44.85,0,0,1,24.707-41.592,5.383,5.383,0,1,1,4.489,9.787,34.171,34.171,0,0,0-18.55,31.724,5.377,5.377,0,0,1-5.377,5.459Zm36.268,42.288c4.731,10.754,2.393,20.351-5.967,24.2a5.2,5.2,0,0,1-2.34.538,5.335,5.335,0,0,1-2.23-10.216c4.033-1.908,1.56-8.387.7-10.351a13.738,13.738,0,0,1,3.44-15.646,5.4,5.4,0,0,1,7.367,7.9,3.146,3.146,0,0,0-.967,3.574Zm24.2-7.607c4.059,16.695,2.177,30.353-5.055,36.51v0a5.368,5.368,0,0,1-3.548,1.318,5.565,5.565,0,0,1-4.141-1.855,5.377,5.377,0,0,1,.564-7.581c3.145-2.688,5-11.937,1.613-25.862a29.59,29.59,0,0,1,2.688-21.213,5.421,5.421,0,0,1,9.3,5.564,18.54,18.54,0,0,0-1.426,13.121Zm5.377-31.992H265.041a5.377,5.377,0,1,1,0-10.754h21.508a5.377,5.377,0,0,1,0,10.754Zm21.213,61.4a5.379,5.379,0,0,1-4.921,3.036,5.194,5.194,0,0,1-2.338-.538c-8.36-3.951-10.754-13.442-5.967-24.2h0a3.145,3.145,0,0,0-.833-3.469,5.4,5.4,0,0,1,7.367-7.9,13.741,13.741,0,0,1,3.442,15.646c-.859,1.964-3.334,8.442.7,10.351a5.38,5.38,0,0,1,2.688,7.072Zm11.695-30.809v0a5.408,5.408,0,1,1-7.689-7.607,5.171,5.171,0,0,0,2.043-4.383c-.322-3.092-4.006-6.291-5.727-7.528-8.416-3.577-7.206-12.449-6.7-16.292,0-.646.187-1.291.242-1.908a12.172,12.172,0,0,0-4.544-10.754,19.675,19.675,0,0,0-11.935-3.6,18.36,18.36,0,0,0-4.974.564,20.737,20.737,0,0,1-8.711.78c-5.888-1.157-13.793-1.695-18.039,2.259s-3.737,10.108-3.6,11.8c3.01,9.491-4.193,16.856-8.521,19.465l0,0a5.88,5.88,0,0,1-1.4.593c-1.613.43-1.855.994-1.935,1.236-.859,2.016.672,6.587,2.043,8.98a5.378,5.378,0,0,1-2.043,7.338,5.73,5.73,0,0,1-2.688.7,5.385,5.385,0,0,1-4.734-2.688c-.619-1.075-5.888-10.754-2.688-18.39a12.726,12.726,0,0,1,8.065-7.206c1.426-.967,4.652-3.656,3.442-7.069a4.43,4.43,0,0,1-.269-1.023c0-.538-1.882-13.442,6.774-21.508,6.1-5.754,15.432-7.446,27.665-5.055a13.424,13.424,0,0,0,3.764-.59,30.514,30.514,0,0,1,7.8-.967,29.563,29.563,0,0,1,18.819,5.915,22.663,22.663,0,0,1,8.685,20.19,21.123,21.123,0,0,1-.3,2.472,13.255,13.255,0,0,0,0,4.786,1.656,1.656,0,0,0,.509.242,6.617,6.617,0,0,1,1.075.538c1.023.672,9.973,6.64,11,15.593a15.728,15.728,0,0,1-5.3,13.118Zm9.678-33.284a5.377,5.377,0,0,1-5.377-5.377,34.438,34.438,0,0,0-18.389-31.806,5.39,5.39,0,1,1,4.518-9.787,44.79,44.79,0,0,1,24.948,41.7,5.375,5.375,0,0,1-5.564,5.269Zm19.947-24.2a5.377,5.377,0,0,1-10.754,0V220.183a5.377,5.377,0,0,1,10.754,0Zm7.715-127.7h-.67a13.847,13.847,0,0,1-8.334-4.462,25.1,25.1,0,0,1-5.216-16.131,35.9,35.9,0,0,0,6.344.725,28.285,28.285,0,0,0,13.9-3.548,37.307,37.307,0,0,0,14.412-15.757,67.207,67.207,0,0,1,3.413,12.4c.322,1.855.672,4.22.888,6.882,0,.43,0,10.97-6.747,16.642-3.98,3.466-10.029,4.57-17.852,3.279Zm9.652,23.389-1.21.242h-.216s-4.22-2.688-4.141-12.314h1.911a30.34,30.34,0,0,0,14.708-3.442,43.848,43.848,0,0,1-10.917,15.54Zm10.055,37.4a87.065,87.065,0,0,0-4.112,9.167,37.024,37.024,0,0,0-1.426,6.669,22.253,22.253,0,0,1-1.236,5.377,6.092,6.092,0,0,1-1.479,1.99V137.271a22.589,22.589,0,0,1,7.259,0,9.969,9.969,0,0,1,7.069,4.489c2.393,5.137-2.5,15.111-6.075,22.262Zm-59.657-8.253a25.566,25.566,0,0,0,9.035-1.829,21.857,21.857,0,0,0-11.426-3.521,20.3,20.3,0,0,0-8.308,1.855,17.707,17.707,0,0,0,10.754,3.495Zm-71.405-3.495a20.3,20.3,0,0,0-8.308-1.855,21.858,21.858,0,0,0-11.426,3.521,25.614,25.614,0,0,0,9.061,1.829,17.755,17.755,0,0,0,10.672-3.495Zm69.009-1.855h0a20.3,20.3,0,0,0-8.308,1.855,17.707,17.707,0,0,0,10.754,3.495,25.561,25.561,0,0,0,9.033-1.829,21.859,21.859,0,0,0-11.479-3.521Zm0,0h0a20.3,20.3,0,0,0-8.308,1.855,17.707,17.707,0,0,0,10.754,3.495,25.561,25.561,0,0,0,9.033-1.829,21.859,21.859,0,0,0-11.479-3.521Zm0,0h0a20.3,20.3,0,0,0-8.308,1.855,17.707,17.707,0,0,0,10.754,3.495,25.561,25.561,0,0,0,9.033-1.829,21.859,21.859,0,0,0-11.479-3.521Zm0,0h0a20.3,20.3,0,0,0-8.308,1.855,17.707,17.707,0,0,0,10.754,3.495,25.561,25.561,0,0,0,9.033-1.829,21.859,21.859,0,0,0-11.479-3.521Z" transform="translate(-1193.792 386)" fill="#fff"/>
      </g>
    </g>
  </g>
</svg>
